<svg width="104" height="209" viewBox="0 0 104 209" fill="none" xmlns="http://www.w3.org/2000/svg">
<g clip-path="url(#clip0)">
<path d="M5.82495 81.3338C5.82495 80.5409 7.29709 80.1976 8.27939 80.1976H96.2527C97.235 80.1976 97.4362 80.5439 97.4362 81.3338V188.951C97.4337 189.409 97.3094 189.856 97.08 190.231C96.8506 190.607 96.5269 190.893 96.1521 191.053L54.0533 208.717C53.043 209.08 51.9603 209.08 50.9501 208.717L7.71278 191.056C6.83638 190.697 5.82495 189.753 5.82495 188.951V81.3338Z" fill="#F7F7F7"/>
<path opacity="0.42" d="M94.2907 118.68V106.329H9.12659L94.2907 118.68Z" fill="#E0E0E0"/>
<path d="M99.8985 101.01C99.8985 101.01 57.5958 117.055 4.22034 101.01V69.7872C53.468 84.4932 99.8985 69.7872 99.8985 69.7872V101.01Z" fill="white"/>
<path d="M99.8986 69.7872V101.01C99.8986 101.01 81.0944 108.145 52.7479 108.145C36.3727 108.156 20.0639 105.758 4.22037 101.01V69.7872C20.6363 74.6902 36.7344 76.3245 50.9077 76.3245C79.2569 76.3245 99.8906 69.7872 99.8906 69.7872H99.8986ZM104.016 63.5719L98.7945 65.2244C98.5721 65.2943 78.2825 71.6038 50.9024 71.6038C34.7937 71.6038 19.4342 69.4561 5.25298 65.2244L0.0952148 63.663V104.673L3.17452 105.585C19.3594 110.436 36.0197 112.886 52.7479 112.875C81.428 112.875 100.407 105.806 101.201 105.506L104.032 104.433V63.5688L104.016 63.5719Z" fill="#F7F7F7"/>
<path d="M20.0325 81.9931C20.3167 82.0508 20.5873 82.176 20.8269 82.3607C21.0537 82.5339 21.2511 82.7532 21.4094 83.0077C21.5604 83.2613 21.6698 83.5444 21.7324 83.8431C21.8016 84.157 21.8115 84.4843 21.7615 84.803L20.3 94.2809C20.2521 94.6018 20.1417 94.906 19.9769 95.171C19.8159 95.4331 19.6139 95.6587 19.3812 95.8363C19.1402 96.016 18.87 96.1379 18.5869 96.1948C18.2886 96.26 17.9823 96.26 17.684 96.1948C15.4264 95.7067 13.1723 95.17 10.9217 94.5847C10.6253 94.508 10.3441 94.3678 10.093 94.1716C9.8528 93.9869 9.64601 93.7507 9.484 93.4759C9.32644 93.2093 9.21829 92.9085 9.16627 92.5919C9.11307 92.2739 9.1203 91.9465 9.18746 91.632L11.1468 82.2726C11.2124 81.9617 11.3322 81.6692 11.4989 81.4129C11.6615 81.1659 11.8659 80.9592 12.1 80.8053C12.3385 80.6472 12.5992 80.5383 12.8704 80.4833C13.1511 80.4236 13.4396 80.4309 13.7177 80.5046C15.8165 81.0372 17.9214 81.5334 20.0325 81.9931ZM18.3724 85.201C16.9479 84.881 15.5261 84.5408 14.1069 84.1803L12.7089 91.4376C14.1793 91.8102 15.6523 92.1626 17.128 92.4947L18.3724 85.201Z" fill="#6B7373"/>
<path d="M34.4707 84.5387C34.5013 84.5802 34.5237 84.6289 34.5365 84.6813C34.5493 84.7337 34.5521 84.7887 34.5448 84.8424L34.2986 87.5552C34.2946 87.607 34.2812 87.6572 34.2593 87.7027C34.2374 87.7482 34.2075 87.788 34.1715 87.8195C34.1346 87.8532 34.0921 87.8779 34.0465 87.892C34.001 87.9061 33.9534 87.9094 33.9067 87.9015C31.8556 87.6524 29.808 87.3618 27.764 87.0296C27.7031 87.0296 27.6687 87.0296 27.6634 87.0965L27.3986 89.3262C27.3953 89.3402 27.3949 89.3548 27.3974 89.369C27.3999 89.3831 27.4052 89.3965 27.4128 89.4079C27.4205 89.4194 27.4304 89.4287 27.4417 89.435C27.453 89.4414 27.4654 89.4447 27.478 89.4447C29.0472 89.6978 30.6174 89.9287 32.1883 90.1373C32.2335 90.1415 32.2774 90.1567 32.3172 90.1818C32.3569 90.207 32.3915 90.2415 32.4187 90.2831C32.4473 90.3258 32.468 90.3748 32.4794 90.4271C32.4908 90.4794 32.4926 90.5338 32.4849 90.5869L32.2201 93.1538C32.2162 93.205 32.2033 93.2547 32.1824 93.3001C32.1615 93.3454 32.1329 93.3856 32.0983 93.4181C32.062 93.4531 32.0195 93.4785 31.9738 93.4927C31.9281 93.5068 31.8802 93.5094 31.8335 93.5001C30.2361 93.2976 28.6404 93.0637 27.0465 92.7984C27.0343 92.7942 27.0215 92.7932 27.009 92.7956C26.9965 92.798 26.9847 92.8037 26.9744 92.8123C26.9642 92.8208 26.9558 92.832 26.9499 92.8448C26.944 92.8577 26.9408 92.872 26.9405 92.8865L26.3872 97.4523C26.3554 97.7115 26.2177 97.8209 25.9741 97.7804C25.0915 97.6346 24.209 97.4807 23.3264 97.3186C23.0828 97.2741 22.9787 97.1222 23.014 96.863L24.8886 83.363C24.8897 83.3091 24.9018 83.2561 24.9238 83.2084C24.9458 83.1607 24.9771 83.1194 25.0153 83.0879C25.0536 83.0564 25.0976 83.0355 25.1441 83.0269C25.1905 83.0182 25.2381 83.022 25.2831 83.038C28.2591 83.5787 31.2431 84.0313 34.235 84.3959C34.2807 84.4 34.3252 84.4148 34.3657 84.4393C34.4062 84.4639 34.4419 84.4977 34.4707 84.5387Z" fill="#6B7373"/>
<path d="M45.967 85.4895C45.998 85.5271 46.022 85.5715 46.0375 85.6201C46.0529 85.6687 46.0596 85.7204 46.057 85.772L45.9644 88.506C45.9634 88.558 45.953 88.6091 45.9339 88.6562C45.9147 88.7033 45.8872 88.7452 45.8532 88.7794C45.8179 88.8171 45.776 88.8458 45.7304 88.8636C45.6848 88.8814 45.6364 88.8879 45.5884 88.8827C43.5302 88.7875 41.4729 88.6508 39.4165 88.4726C39.3556 88.4726 39.3239 88.4908 39.3186 88.5455L39.1703 90.7905C39.1678 90.8048 39.1682 90.8196 39.1716 90.8337C39.1749 90.8478 39.181 90.8608 39.1895 90.8717C39.198 90.8826 39.2086 90.8911 39.2204 90.8965C39.2322 90.9019 39.245 90.9041 39.2577 90.9028C40.834 91.0385 42.412 91.1509 43.9918 91.24C44.0371 91.2408 44.0818 91.2525 44.1229 91.2745C44.164 91.2965 44.2005 91.3282 44.2301 91.3676C44.2888 91.4457 44.3183 91.5473 44.3122 91.6502L44.2063 94.2292C44.2054 94.2806 44.1956 94.3312 44.1774 94.3782C44.1592 94.4251 44.133 94.4674 44.1004 94.5026C44.067 94.5387 44.0273 94.5663 43.9839 94.5836C43.9406 94.6009 43.8946 94.6074 43.8488 94.6029C42.2443 94.5118 40.6416 94.3973 39.0406 94.2596C38.977 94.2596 38.9426 94.287 38.94 94.3538L38.6566 98.9803C38.639 99.2416 38.5075 99.3611 38.2621 99.3388C37.3707 99.2598 36.4793 99.1727 35.5879 99.0775C35.3426 99.0512 35.2305 98.9074 35.2517 98.6462L36.3664 85.0308C36.3642 84.9766 36.3731 84.9226 36.3923 84.8731C36.4114 84.8235 36.4404 84.7797 36.4769 84.7453C36.5134 84.7108 36.5564 84.6865 36.6024 84.6744C36.6485 84.6622 36.6964 84.6626 36.7423 84.6754C39.7431 84.9913 42.7439 85.2191 45.7446 85.3589C45.8306 85.368 45.9103 85.4148 45.967 85.4895Z" fill="#6B7373"/>
<path d="M50.9448 99.5879C50.9448 99.8492 50.8203 99.9788 50.5714 99.9767C49.6783 99.9646 48.7851 99.9443 47.8919 99.916C47.6466 99.916 47.5265 99.7813 47.5318 99.512L47.8708 85.8419C47.8655 85.788 47.8713 85.7335 47.8876 85.6826C47.904 85.6318 47.9304 85.586 47.9648 85.5488C47.9992 85.5117 48.0407 85.4843 48.086 85.4687C48.1312 85.4531 48.179 85.4499 48.2255 85.4591C49.0587 85.4855 49.8927 85.5037 50.7276 85.5138C50.7744 85.5066 50.8221 85.512 50.8667 85.5296C50.9114 85.5471 50.9519 85.5764 50.985 85.615C51.0182 85.6536 51.043 85.7005 51.0576 85.752C51.0722 85.8035 51.0762 85.8582 51.0692 85.9118L50.9448 99.5879Z" fill="#6B7373"/>
<path d="M57.2305 89.0893C57.1983 89.1236 57.173 89.1656 57.1566 89.2123C57.1401 89.259 57.1328 89.3093 57.1352 89.3597L57.2702 96.0428C57.27 96.0937 57.2799 96.1439 57.2992 96.1897C57.3185 96.2355 57.3466 96.2757 57.3814 96.3071C57.4559 96.3766 57.5504 96.4113 57.6462 96.4043C59.6902 96.3456 61.7334 96.2443 63.7757 96.1005C63.8232 96.096 63.8711 96.1022 63.9165 96.1189C63.9619 96.1356 64.0041 96.1624 64.0404 96.1977C64.0758 96.2306 64.1047 96.2717 64.1252 96.3183C64.1457 96.3649 64.1575 96.4159 64.1596 96.4681L64.3026 99.2021C64.306 99.2546 64.2995 99.3072 64.2835 99.3565C64.2675 99.4058 64.2424 99.4505 64.2099 99.4877C64.1756 99.5286 64.1345 99.5613 64.089 99.5837C64.0436 99.6061 63.9946 99.6179 63.9451 99.6183C62.593 99.7094 61.2409 99.7833 59.8888 99.84C58.775 99.8866 57.6621 99.9221 56.55 99.9464H56.2005C55.899 99.9544 55.5989 99.8966 55.3162 99.7762C55.0463 99.6629 54.7982 99.4906 54.5854 99.2689C54.3787 99.0527 54.2129 98.7901 54.0982 98.4973C53.9813 98.2026 53.9208 97.8825 53.9208 97.5587V97.2093V95.6904L53.8997 90.8786V89.5359V87.9441C53.8965 87.621 53.9505 87.3007 54.0585 87.0023C54.1613 86.7136 54.3145 86.4521 54.5086 86.2338C54.706 86.0144 54.9354 85.8365 55.1865 85.7082C55.4454 85.5739 55.7257 85.5025 56.0099 85.4986H56.3356C58.6303 85.448 60.9311 85.3468 63.2382 85.1949C63.2837 85.1906 63.3294 85.1971 63.3727 85.2138C63.4159 85.2305 63.4557 85.2571 63.4897 85.2921C63.5237 85.3259 63.5514 85.3673 63.5709 85.4138C63.5905 85.4603 63.6016 85.5109 63.6036 85.5624L63.7465 88.2964C63.7501 88.3484 63.7442 88.4006 63.7292 88.4498C63.7141 88.499 63.6903 88.544 63.6592 88.582C63.6284 88.6215 63.5909 88.6535 63.5491 88.676C63.5072 88.6984 63.4618 88.7109 63.4156 88.7126C61.4439 88.8443 59.4714 88.9384 57.4979 88.9951C57.4501 88.9897 57.4019 88.9953 57.356 89.0115C57.3101 89.0276 57.2674 89.0541 57.2305 89.0893Z" fill="#6B7373"/>
<path d="M70.7763 98.631C70.7975 98.8923 70.6854 99.0361 70.4401 99.0624C69.5575 99.1576 68.667 99.2457 67.7685 99.3267C67.5232 99.3489 67.3917 99.2295 67.374 98.9682L66.4579 85.3285C66.448 85.2757 66.4488 85.2209 66.4605 85.1685C66.4722 85.1161 66.4943 85.0675 66.5251 85.0266C66.5559 84.9856 66.5945 84.9535 66.638 84.9326C66.6815 84.9117 66.7286 84.9027 66.7756 84.9063C67.607 84.8313 68.4384 84.7493 69.2698 84.6602C69.3155 84.6475 69.3631 84.6471 69.409 84.6591C69.4549 84.6711 69.4977 84.695 69.5341 84.7292C69.5705 84.7633 69.5996 84.8067 69.6189 84.8558C69.6383 84.905 69.6475 84.9587 69.6458 85.0126L70.7763 98.631Z" fill="#6B7373"/>
<path d="M80.9171 82.9743C81.1982 82.9218 81.4857 82.9362 81.7617 83.0168C82.0262 83.0919 82.2765 83.2216 82.5005 83.3996C82.7226 83.5796 82.9138 83.8051 83.0644 84.0649C83.2229 84.3336 83.3294 84.6381 83.3769 84.958L85.1058 96.4378C85.1155 96.4907 85.1148 96.5453 85.1039 96.5979C85.0929 96.6504 85.0718 96.6995 85.0423 96.7416C84.9829 96.8307 84.8955 96.8896 84.7987 96.9056C83.9161 97.0798 83.0256 97.2468 82.1271 97.4068C82.0347 97.4237 81.9401 97.3998 81.8624 97.34C81.8236 97.3114 81.7908 97.2735 81.7661 97.2289C81.7414 97.1844 81.7255 97.1341 81.7194 97.0818L81.2296 93.4364C81.2236 93.3854 81.2088 93.3363 81.1861 93.292C81.1634 93.2477 81.1331 93.209 81.0972 93.1782C81.0599 93.1456 81.017 93.1225 80.9714 93.1104C80.9257 93.0984 80.8783 93.0977 80.8324 93.1084C79.588 93.3251 78.3418 93.5276 77.0938 93.7159C77.0465 93.7215 77.0006 93.7378 76.9588 93.7639C76.9169 93.79 76.8801 93.8253 76.8502 93.8678C76.819 93.909 76.7961 93.9576 76.7833 94.0101C76.7705 94.0627 76.768 94.1178 76.7761 94.1716L77.1838 97.8169C77.2138 98.0762 77.1062 98.224 76.8608 98.2605C75.9782 98.3901 75.0895 98.5126 74.1945 98.628C73.9492 98.6604 73.8142 98.546 73.7894 98.2848L72.6695 86.7047C72.6378 86.3843 72.663 86.0598 72.7436 85.7508C72.82 85.4517 72.9489 85.1737 73.1222 84.9337C73.2979 84.6908 73.5094 84.4851 73.7471 84.3261C73.991 84.1637 74.2613 84.0603 74.5414 84.0223C76.6719 83.7125 78.7972 83.3631 80.9171 82.9743ZM80.753 89.9612L80.2711 86.3675C78.8413 86.6207 77.4089 86.8536 75.9738 87.0662L76.3816 90.6721C77.8396 90.4594 79.2976 90.2245 80.7556 89.9673L80.753 89.9612Z" fill="#6B7373"/>
<path d="M96.0964 90.6629C96.1412 90.649 96.188 90.646 96.2338 90.654C96.2797 90.662 96.3236 90.681 96.3627 90.7096C96.4018 90.7381 96.4353 90.7758 96.461 90.82C96.4867 90.8643 96.5041 90.9142 96.5121 90.9667L97.0681 93.6187C97.0807 93.6695 97.0839 93.7227 97.0775 93.775C97.0711 93.8273 97.0553 93.8775 97.0311 93.9224C97.0064 93.9685 96.9736 94.0082 96.9349 94.0391C96.8962 94.0699 96.8523 94.0912 96.806 94.1017C94.0665 94.851 91.3173 95.5284 88.5584 96.1339C88.3148 96.1866 88.1718 96.0853 88.1294 95.8302L85.9106 82.394C85.896 82.3437 85.8916 82.2903 85.8977 82.2377C85.9037 82.1851 85.9201 82.1349 85.9456 82.0907C85.9712 82.0465 86.0051 82.0095 86.0449 81.9826C86.0847 81.9557 86.1293 81.9395 86.1754 81.9353C86.998 81.7551 87.8196 81.5677 88.6404 81.3733C88.6847 81.3548 88.7322 81.3484 88.779 81.3545C88.8258 81.3607 88.8707 81.3792 88.9103 81.4087C88.9498 81.4381 88.9828 81.4777 89.0068 81.5243C89.0307 81.5708 89.0449 81.6232 89.0482 81.6771L90.8592 91.6471C90.867 91.6972 90.8847 91.7446 90.9108 91.7856C90.937 91.8267 90.9709 91.8604 91.0102 91.8841C91.0914 91.9332 91.1854 91.9472 91.2749 91.9236C92.8918 91.5206 94.499 91.1003 96.0964 90.6629Z" fill="#6B7373"/>
<path d="M104.088 63.5627L98.8162 60.5644L98.7607 0H4.76638L4.867 61.0596L0.0296021 63.7936L4.867 67.6486V67.7427H4.97555L5.2721 67.9797L5.29593 67.7427H6.92693C6.92693 67.7427 52.0495 83.2871 98.1358 67.9797H98.8242V67.7427H98.8533L104.088 63.5627Z" fill="#F7F7F7"/>
<path d="M23.284 170.551C23.5329 170.668 23.7582 170.843 23.946 171.064C24.1324 171.286 24.2838 171.543 24.3934 171.824C24.5056 172.11 24.5634 172.421 24.5629 172.735V176.59C24.5641 176.911 24.5063 177.229 24.3934 177.522C24.2854 177.807 24.1338 178.067 23.946 178.291C23.7582 178.512 23.533 178.687 23.284 178.804C23.0266 178.928 22.7502 178.991 22.4712 178.99H15.3408C15.2965 178.997 15.2514 178.992 15.2088 178.976C15.1662 178.961 15.1272 178.934 15.0946 178.899C15.0621 178.864 15.0369 178.821 15.0209 178.773C15.0048 178.725 14.9984 178.673 15.0019 178.622V176.14C15.0016 176.089 15.0101 176.038 15.027 175.991C15.0439 175.944 15.0689 175.901 15.1004 175.864C15.132 175.828 15.1695 175.8 15.2107 175.78C15.252 175.761 15.2962 175.751 15.3408 175.751H21.4174C21.5063 175.754 21.5927 175.717 21.6583 175.648C21.6907 175.614 21.7162 175.573 21.7331 175.527C21.75 175.481 21.7579 175.431 21.7563 175.381V173.68C21.7566 173.628 21.7481 173.578 21.7312 173.53C21.7143 173.483 21.6893 173.44 21.6578 173.404C21.6263 173.368 21.5888 173.339 21.5475 173.32C21.5062 173.3 21.462 173.29 21.4174 173.291H17.091C16.812 173.292 16.5356 173.229 16.2781 173.106C16.0314 172.981 15.8084 172.803 15.6215 172.58C15.4312 172.362 15.2792 172.104 15.174 171.821C15.067 171.532 15.0121 171.222 15.0125 170.909V167.045C15.0114 166.725 15.0663 166.408 15.174 166.113C15.2763 165.827 15.4286 165.568 15.6215 165.353C15.8164 165.138 16.0433 164.964 16.2914 164.84C16.5474 164.71 16.8244 164.644 17.1042 164.645H23.8295C23.8755 164.638 23.9225 164.642 23.9666 164.659C24.0108 164.676 24.0509 164.705 24.0838 164.742C24.1167 164.78 24.1415 164.826 24.1562 164.877C24.1708 164.927 24.175 164.981 24.1684 165.034V167.555C24.17 167.606 24.1621 167.655 24.1452 167.702C24.1283 167.748 24.1027 167.789 24.0704 167.823C24.0047 167.892 23.9184 167.929 23.8295 167.926H18.1289C18.0853 167.924 18.0418 167.933 18.0015 167.953C17.9613 167.972 17.9252 168.001 17.8959 168.038C17.8359 168.114 17.8036 168.213 17.8059 168.315V169.977C17.8036 170.079 17.8359 170.178 17.8959 170.253C17.9252 170.29 17.9613 170.319 18.0015 170.339C18.0418 170.358 18.0853 170.367 18.1289 170.365H22.4712C22.7502 170.364 23.0266 170.427 23.284 170.551Z" fill="#6B7373"/>
<path d="M36.7397 164.761C36.7716 164.797 36.7967 164.84 36.8136 164.887C36.8304 164.935 36.8386 164.986 36.8377 165.037V167.619C36.8393 167.669 36.8314 167.719 36.8145 167.765C36.7976 167.811 36.7721 167.853 36.7397 167.887C36.6741 167.955 36.5877 167.992 36.4988 167.99H30.5123C30.5 167.988 30.4876 167.989 30.4758 167.993C30.4641 167.998 30.4534 168.006 30.4447 168.016C30.4359 168.026 30.4294 168.038 30.4255 168.051C30.4216 168.065 30.4205 168.079 30.4222 168.093V170.329C30.4222 170.384 30.4514 170.411 30.5123 170.411H35.6224C35.666 170.409 35.7094 170.418 35.7496 170.438C35.7899 170.457 35.8259 170.486 35.8554 170.523C35.9152 170.599 35.9474 170.698 35.9454 170.8V172.85C35.9477 172.952 35.9154 173.051 35.8554 173.127C35.826 173.164 35.79 173.193 35.7497 173.213C35.7095 173.232 35.666 173.241 35.6224 173.239H30.5123C30.5 173.237 30.4876 173.238 30.4758 173.243C30.4641 173.247 30.4534 173.255 30.4447 173.265C30.4359 173.275 30.4294 173.287 30.4255 173.301C30.4216 173.314 30.4205 173.328 30.4222 173.342V175.557C30.4205 175.571 30.4216 175.585 30.4255 175.599C30.4294 175.612 30.4359 175.624 30.4447 175.634C30.4534 175.644 30.4641 175.652 30.4758 175.657C30.4876 175.661 30.5 175.662 30.5123 175.66H36.4988C36.5434 175.66 36.5876 175.67 36.6289 175.689C36.6702 175.708 36.7077 175.737 36.7392 175.773C36.7708 175.809 36.7957 175.852 36.8126 175.9C36.8295 175.947 36.838 175.998 36.8377 176.049V178.622C36.838 178.673 36.8295 178.724 36.8126 178.771C36.7957 178.819 36.7708 178.862 36.7392 178.898C36.7077 178.934 36.6702 178.963 36.6289 178.982C36.5876 179.002 36.5434 179.011 36.4988 179.011H27.6157C27.5692 179.02 27.5216 179.016 27.4768 178.999C27.4319 178.983 27.3911 178.955 27.3575 178.917C27.324 178.879 27.2987 178.832 27.2838 178.781C27.2688 178.73 27.2646 178.675 27.2714 178.622V165.037C27.2711 164.985 27.2798 164.934 27.297 164.886C27.3142 164.839 27.3397 164.795 27.3718 164.759C27.4039 164.723 27.442 164.694 27.4839 164.675C27.5258 164.656 27.5706 164.647 27.6157 164.648H36.4961C36.5413 164.647 36.5862 164.656 36.6281 164.675C36.6701 164.695 36.708 164.724 36.7397 164.761Z" fill="#6B7373"/>
<path d="M48.0773 164.648C48.3571 164.647 48.6341 164.713 48.8901 164.843C49.3879 165.087 49.7844 165.541 49.9969 166.113C50.1098 166.406 50.1675 166.724 50.1663 167.045V178.622C50.1667 178.673 50.1582 178.724 50.1413 178.771C50.1243 178.819 50.0994 178.862 50.0679 178.898C50.0363 178.934 49.9988 178.963 49.9575 178.982C49.9163 179.002 49.872 179.011 49.8274 179.011H47.3439C47.2993 179.011 47.255 179.002 47.2137 178.982C47.1725 178.963 47.135 178.934 47.1034 178.898C47.0719 178.862 47.0469 178.819 47.03 178.771C47.0131 178.724 47.0046 178.673 47.005 178.622V174.94C47.0069 174.838 46.9747 174.739 46.9149 174.664C46.8855 174.627 46.8494 174.598 46.8092 174.578C46.7689 174.559 46.7255 174.55 46.6819 174.552H43.1578C43.1132 174.551 43.069 174.561 43.0277 174.58C42.9864 174.6 42.9489 174.628 42.9174 174.664C42.8858 174.701 42.8609 174.744 42.844 174.791C42.8271 174.838 42.8185 174.889 42.8189 174.94V178.622C42.8256 178.675 42.8214 178.729 42.8067 178.78C42.792 178.83 42.7672 178.876 42.7343 178.914C42.7014 178.952 42.6613 178.98 42.6172 178.997C42.573 179.014 42.526 179.019 42.48 179.011H40.015C39.9689 179.019 39.9219 179.014 39.8778 178.997C39.8336 178.98 39.7935 178.952 39.7606 178.914C39.7277 178.876 39.7029 178.83 39.6883 178.78C39.6736 178.729 39.6694 178.675 39.676 178.622V167.045C39.675 166.725 39.7299 166.408 39.8376 166.113C39.9399 165.827 40.0922 165.569 40.285 165.353C40.4799 165.138 40.7068 164.964 40.9549 164.84C41.2109 164.71 41.4879 164.644 41.7678 164.645L48.0773 164.648ZM47.0182 171.474V167.865H42.8057V171.474H47.0182Z" fill="#6B7373"/>
<path d="M61.2207 170.551C61.4696 170.668 61.6949 170.843 61.8826 171.064C62.0691 171.285 62.2205 171.542 62.3301 171.824C62.4424 172.11 62.5002 172.421 62.4995 172.735V176.59C62.5009 176.911 62.4431 177.229 62.3301 177.522C62.222 177.807 62.0705 178.067 61.8826 178.291C61.695 178.512 61.4697 178.687 61.2207 178.804C60.9633 178.928 60.6868 178.991 60.4078 178.99H53.2775C53.2314 178.997 53.1845 178.993 53.1403 178.976C53.0961 178.959 53.056 178.93 53.0231 178.893C52.9902 178.855 52.9654 178.809 52.9508 178.758C52.9361 178.708 52.9319 178.654 52.9386 178.601V176.119C52.9382 176.068 52.9467 176.017 52.9636 175.97C52.9805 175.922 53.0055 175.879 53.037 175.843C53.0686 175.807 53.1061 175.778 53.1474 175.759C53.1886 175.74 53.2329 175.73 53.2775 175.73H59.354C59.4429 175.733 59.5293 175.696 59.595 175.627C59.6273 175.593 59.6528 175.552 59.6697 175.506C59.6867 175.459 59.6946 175.41 59.6929 175.36V173.658C59.6933 173.607 59.6847 173.556 59.6678 173.509C59.6509 173.462 59.626 173.419 59.5944 173.383C59.5629 173.346 59.5254 173.318 59.4841 173.298C59.4428 173.279 59.3986 173.269 59.354 173.27H55.0276C54.6166 173.273 54.214 173.136 53.8704 172.877C53.5269 172.618 53.258 172.249 53.0974 171.814C52.9904 171.526 52.9355 171.216 52.9359 170.903V167.045C52.9348 166.725 52.9897 166.408 53.0974 166.113C53.1997 165.827 53.352 165.568 53.5449 165.353C53.7398 165.138 53.9667 164.964 54.2148 164.84C54.4708 164.71 54.7478 164.644 55.0276 164.645H61.7634C61.8095 164.638 61.8565 164.642 61.9006 164.659C61.9448 164.676 61.9849 164.705 62.0178 164.742C62.0507 164.78 62.0755 164.826 62.0901 164.877C62.1048 164.927 62.109 164.981 62.1023 165.034V167.555C62.1038 167.605 62.0958 167.655 62.0789 167.701C62.062 167.748 62.0366 167.789 62.0044 167.823C61.9387 167.892 61.8524 167.929 61.7634 167.926H56.0655C56.0219 167.924 55.9784 167.933 55.9382 167.953C55.8979 167.972 55.8619 168.001 55.8325 168.038C55.7727 168.114 55.7405 168.213 55.7425 168.315V169.977C55.7402 170.079 55.7725 170.178 55.8325 170.253C55.8619 170.29 55.8979 170.319 55.9382 170.339C55.9784 170.358 56.0219 170.367 56.0655 170.365H60.4078C60.6868 170.364 60.9633 170.427 61.2207 170.551Z" fill="#6B7373"/>
<path d="M73.6066 164.648C73.8865 164.647 74.1635 164.713 74.4195 164.843C74.9173 165.087 75.3138 165.541 75.5262 166.113C75.6391 166.406 75.6969 166.724 75.6957 167.045V176.599C75.6969 176.92 75.6391 177.238 75.5262 177.532C75.4182 177.816 75.2667 178.077 75.0788 178.3C74.8912 178.522 74.6658 178.696 74.4168 178.814C74.1595 178.937 73.883 179 73.604 178.999H67.268C66.9889 179 66.7125 178.937 66.4551 178.814C66.2044 178.695 65.9765 178.521 65.7848 178.301C65.593 178.081 65.4411 177.819 65.3378 177.532C65.2302 177.236 65.1753 176.919 65.1763 176.599V167.045C65.1752 166.725 65.2301 166.408 65.3378 166.113C65.4402 165.827 65.5925 165.569 65.7853 165.353C65.9802 165.138 66.2071 164.964 66.4551 164.84C66.7112 164.71 66.9881 164.644 67.268 164.645L73.6066 164.648ZM72.5476 168.133H68.3112V175.515H72.5211L72.5476 168.133Z" fill="#6B7373"/>
<path d="M88.8999 164.761C88.9318 164.797 88.9569 164.84 88.9738 164.887C88.9906 164.935 88.9988 164.986 88.9979 165.037V178.622C88.9982 178.673 88.9897 178.724 88.9728 178.771C88.9559 178.819 88.931 178.862 88.8994 178.898C88.8679 178.934 88.8304 178.963 88.7891 178.982C88.7478 179.002 88.7036 179.011 88.659 179.011H86.0854C85.9848 179.01 85.8863 178.978 85.7994 178.92C85.7102 178.865 85.6359 178.783 85.585 178.683L81.6346 170.317V178.622C81.6412 178.675 81.637 178.729 81.6224 178.78C81.6077 178.83 81.5829 178.876 81.55 178.914C81.5171 178.952 81.477 178.98 81.4328 178.997C81.3887 179.014 81.3417 179.019 81.2957 179.011H78.8306C78.7846 179.019 78.7376 179.014 78.6935 178.997C78.6493 178.98 78.6092 178.952 78.5763 178.914C78.5434 178.876 78.5186 178.83 78.5039 178.78C78.4892 178.729 78.4851 178.675 78.4917 178.622V165.037C78.4851 164.984 78.4892 164.93 78.5039 164.88C78.5186 164.829 78.5434 164.783 78.5763 164.745C78.6092 164.708 78.6493 164.679 78.6935 164.662C78.7376 164.645 78.7846 164.641 78.8306 164.648H81.3671C81.4678 164.65 81.5663 164.681 81.6531 164.739C81.7422 164.794 81.8164 164.876 81.8676 164.976L85.8392 173.361V165.037C85.8388 164.986 85.8473 164.935 85.8642 164.888C85.8811 164.84 85.9061 164.797 85.9376 164.761C85.9692 164.725 86.0067 164.696 86.048 164.677C86.0892 164.658 86.1335 164.648 86.1781 164.648H88.6616C88.7059 164.648 88.7498 164.657 88.7908 164.677C88.8317 164.696 88.8689 164.724 88.8999 164.761Z" fill="#6B7373"/>
<path d="M21.0705 147.688V150.978C21.0765 151.058 21.0962 151.135 21.1285 151.207C21.1608 151.278 21.2051 151.341 21.2588 151.392C21.3124 151.444 21.3744 151.482 21.4412 151.506C21.5079 151.53 21.5781 151.538 21.6477 151.531H32.4293C32.5078 151.527 32.5861 151.543 32.6584 151.578C32.7308 151.614 32.7954 151.667 32.8476 151.734C32.9553 151.87 33.0132 152.049 33.0091 152.232V156.686C33.0135 156.87 32.9556 157.048 32.8476 157.184C32.7954 157.251 32.7308 157.305 32.6584 157.34C32.5861 157.375 32.5078 157.391 32.4293 157.388H16.6409C16.5578 157.403 16.4727 157.396 16.3925 157.367C16.3123 157.337 16.2394 157.286 16.1799 157.218C16.1203 157.149 16.0759 157.066 16.0501 156.974C16.0244 156.882 16.0181 156.784 16.0319 156.689V146.142C16.0285 145.573 16.1267 145.01 16.3205 144.486C16.5069 143.978 16.7766 143.516 17.1148 143.125C17.4597 142.734 17.8681 142.424 18.3169 142.214C18.7811 141.985 19.281 141.866 19.7864 141.864H27.3906C27.4708 141.865 27.5503 141.848 27.6245 141.813C27.6987 141.778 27.7661 141.727 27.8228 141.662C27.8795 141.597 27.9244 141.519 27.9547 141.434C27.9851 141.349 28.0003 141.258 27.9996 141.166V138.189C28.0003 138.097 27.9851 138.006 27.9547 137.92C27.9244 137.835 27.8795 137.758 27.8228 137.693C27.7661 137.628 27.6987 137.576 27.6245 137.542C27.5503 137.507 27.4708 137.489 27.3906 137.49H17.316C17.2392 137.494 17.1625 137.48 17.0908 137.448C17.019 137.417 16.9539 137.368 16.8995 137.306C16.8451 137.243 16.8027 137.169 16.7751 137.086C16.7474 137.004 16.7351 136.916 16.7388 136.828V132.298C16.7345 132.115 16.7924 131.936 16.9004 131.8C16.9526 131.733 17.0172 131.68 17.0895 131.644C17.1619 131.609 17.2402 131.593 17.3187 131.597H29.2864C29.7837 131.593 30.2758 131.712 30.7294 131.946C31.1677 132.169 31.569 132.477 31.9156 132.857C32.2582 133.244 32.5285 133.707 32.7099 134.218C32.9027 134.749 33.0009 135.318 32.9985 135.892V136.922C33.0212 136.952 33.0326 136.992 33.0303 137.031V146.421C33.0336 146.511 33.0194 146.601 32.9888 146.684C32.9581 146.767 32.9117 146.841 32.8529 146.901C32.7345 147.025 32.5789 147.091 32.4187 147.086H21.6477C21.503 147.084 21.363 147.145 21.2559 147.257C21.1488 147.368 21.0826 147.522 21.0705 147.688Z" fill="#6B7373"/>
<path d="M51.3922 131.6C51.8945 131.598 52.3916 131.717 52.8511 131.949C53.7455 132.387 54.458 133.205 54.8395 134.231C55.0424 134.758 55.1462 135.328 55.144 135.905V153.059C55.1463 153.635 55.0425 154.206 54.8395 154.733C54.6481 155.243 54.3792 155.71 54.0452 156.112C53.708 156.505 53.3044 156.815 52.859 157.023C52.3947 157.247 51.8958 157.36 51.3922 157.358H41.7333C41.2326 157.36 40.7365 157.248 40.2744 157.026C39.8246 156.814 39.4159 156.501 39.0719 156.107C38.7279 155.712 38.4554 155.243 38.2701 154.727C38.0772 154.197 37.9791 153.627 37.9815 153.053V135.908C37.9791 135.333 38.0772 134.764 38.2701 134.234C38.4513 133.723 38.7216 133.26 39.0644 132.873C39.4148 132.49 39.8219 132.181 40.2665 131.962C40.726 131.729 41.2231 131.61 41.7254 131.612H51.3922V131.6ZM49.6924 137.858H43.4226V151.112H49.6791L49.6924 137.858Z" fill="#6B7373"/>
<path d="M67.0826 132.299V156.671C67.0964 156.766 67.0902 156.864 67.0644 156.956C67.0387 157.048 66.9942 157.132 66.9347 157.2C66.8751 157.268 66.8022 157.319 66.7221 157.349C66.6419 157.378 66.5567 157.385 66.4737 157.37H62.044C61.961 157.385 61.8758 157.378 61.7956 157.349C61.7155 157.319 61.6426 157.268 61.583 157.2C61.5235 157.132 61.479 157.048 61.4533 156.956C61.4275 156.864 61.4213 156.766 61.4351 156.671V138.484C61.4351 138.387 61.3874 138.344 61.2894 138.356C61.163 138.387 61.0465 138.457 60.9532 138.56L59.3804 139.957C59.2516 140.081 59.1395 140.111 59.0442 140.048C58.9919 140.005 58.9509 139.946 58.9257 139.878C58.9005 139.81 58.892 139.736 58.9012 139.662V134.498C58.9047 134.285 58.9538 134.077 59.0442 133.891C59.1271 133.701 59.2413 133.532 59.3804 133.392L60.9532 131.992C61.1048 131.852 61.2795 131.749 61.4668 131.688C61.6536 131.62 61.848 131.583 62.044 131.579H66.471C66.5561 131.561 66.6436 131.568 66.7259 131.599C66.8082 131.629 66.8827 131.682 66.9431 131.753C67.0034 131.824 67.0477 131.911 67.072 132.006C67.0963 132.101 67.1 132.202 67.0826 132.299Z" fill="#6B7373"/>
<path d="M84.1526 131.6C84.6548 131.598 85.1519 131.717 85.6115 131.949C86.5059 132.387 87.2183 133.205 87.5999 134.231C87.8028 134.758 87.9065 135.328 87.9044 135.905V156.668C87.9051 156.76 87.8898 156.851 87.8595 156.936C87.8291 157.021 87.7843 157.099 87.7276 157.164C87.6709 157.229 87.6035 157.28 87.5293 157.315C87.4551 157.35 87.3756 157.368 87.2954 157.367H82.8366C82.7581 157.371 82.6798 157.354 82.6075 157.319C82.5351 157.284 82.4705 157.231 82.4183 157.163C82.3101 157.027 82.2522 156.849 82.2568 156.665V150.635C82.2601 150.545 82.2459 150.455 82.2152 150.372C82.1846 150.289 82.1382 150.215 82.0794 150.155C81.9608 150.031 81.8053 149.965 81.6452 149.97H74.4963C73.994 149.972 73.4968 149.853 73.0374 149.62C72.5926 149.401 72.1855 149.092 71.8353 148.709C71.4923 148.322 71.222 147.859 71.041 147.348C70.8482 146.818 70.7501 146.249 70.7524 145.674V135.908C70.7502 135.333 70.8483 134.764 71.041 134.234C71.2222 133.723 71.4925 133.26 71.8353 132.873C72.1857 132.49 72.5928 132.181 73.0374 131.962C73.4969 131.729 73.994 131.61 74.4963 131.612H84.1552L84.1526 131.6ZM82.4527 137.454H76.1935V143.934H82.4501L82.4527 137.454Z" fill="#6B7373"/>
<path d="M21.4124 47.8452C21.5553 47.9153 21.6691 48.0458 21.7302 48.2097C21.7622 48.294 21.7784 48.3851 21.7778 48.4771V51.8186C21.7778 51.8485 21.7675 51.877 21.7491 51.8981C21.7308 51.9192 21.7058 51.931 21.6799 51.931H20.965C20.9525 51.9314 20.9401 51.9286 20.9286 51.9228C20.9172 51.9171 20.907 51.9085 20.8988 51.8976C20.8816 51.8761 20.8721 51.8479 20.8723 51.8186V48.8051H20.2977V51.8186C20.298 51.8479 20.2885 51.8761 20.2713 51.8976C20.2631 51.9085 20.2529 51.9171 20.2414 51.9228C20.23 51.9286 20.2176 51.9314 20.2051 51.931H19.559C19.533 51.931 19.5081 51.9192 19.4898 51.8981C19.4714 51.877 19.4611 51.8485 19.4611 51.8186V48.8051H18.8839V51.8186C18.8856 51.8339 18.8843 51.8494 18.8799 51.8639C18.8756 51.8784 18.8685 51.8917 18.859 51.9025C18.8495 51.9134 18.838 51.9216 18.8253 51.9266C18.8127 51.9315 18.7992 51.933 18.7859 51.931H18.0763C18.063 51.933 18.0495 51.9315 18.0369 51.9266C18.0242 51.9216 18.0127 51.9134 18.0032 51.9025C17.9937 51.8917 17.9866 51.8784 17.9822 51.8639C17.9779 51.8494 17.9766 51.8339 17.9783 51.8186V47.9029C17.9766 47.8877 17.9779 47.8722 17.9822 47.8577C17.9866 47.8431 17.9937 47.8299 18.0032 47.819C18.0127 47.8082 18.0242 47.8 18.0369 47.795C18.0495 47.7901 18.063 47.7885 18.0763 47.7905H21.1821C21.2613 47.7903 21.3398 47.8089 21.4124 47.8452Z" fill="#353535"/>
<path d="M25.0078 47.7906C25.0888 47.7896 25.1691 47.8082 25.2434 47.8452C25.3861 47.9156 25.4998 48.0461 25.5611 48.2098C25.5932 48.2941 25.6094 48.3851 25.6088 48.4771V51.8187C25.6092 51.8335 25.6069 51.8483 25.6021 51.8622C25.5973 51.876 25.5901 51.8886 25.5809 51.8991C25.5717 51.9096 25.5608 51.9179 25.5487 51.9234C25.5367 51.9289 25.5238 51.9315 25.5108 51.9311H24.7959C24.77 51.9311 24.745 51.9192 24.7267 51.8981C24.7083 51.8771 24.698 51.8485 24.698 51.8187V50.7615C24.6982 50.7323 24.6887 50.7041 24.6715 50.6825C24.6632 50.6719 24.653 50.6634 24.6416 50.6576C24.6301 50.6518 24.6178 50.6489 24.6053 50.6491H23.5886C23.5757 50.6491 23.563 50.652 23.5511 50.6577C23.5392 50.6633 23.5284 50.6716 23.5193 50.682C23.5102 50.6925 23.503 50.7049 23.4981 50.7185C23.4931 50.7321 23.4906 50.7468 23.4906 50.7615V51.8187C23.4923 51.8339 23.491 51.8494 23.4867 51.8639C23.4824 51.8785 23.4752 51.8917 23.4658 51.9026C23.4563 51.9134 23.4448 51.9216 23.4321 51.9266C23.4194 51.9315 23.4059 51.9331 23.3926 51.9311H22.6831C22.6698 51.9331 22.6563 51.9315 22.6436 51.9266C22.6309 51.9216 22.6194 51.9134 22.6099 51.9026C22.6005 51.8917 22.5933 51.8785 22.589 51.8639C22.5847 51.8494 22.5834 51.8339 22.5851 51.8187V48.4771C22.5845 48.3855 22.5998 48.2946 22.6301 48.2098C22.6635 48.1285 22.7113 48.0561 22.7704 47.9971C22.8265 47.9345 22.892 47.8841 22.9637 47.8483C23.0372 47.8116 23.1166 47.793 23.1967 47.7936L25.0078 47.7906ZM24.7006 49.756V48.7171H23.4906V49.756H24.7006Z" fill="#353535"/>
<path d="M28.8602 47.824C28.8694 47.8342 28.8768 47.8465 28.8818 47.8601C28.8868 47.8737 28.8893 47.8883 28.8893 47.903V51.2446C28.8898 51.3365 28.8735 51.4275 28.8416 51.5119C28.8103 51.5941 28.7664 51.6692 28.7119 51.7336C28.658 51.7978 28.5931 51.8485 28.5213 51.8825C28.4474 51.9173 28.3682 51.9349 28.2883 51.9341H26.7393C26.6595 51.9349 26.5802 51.9173 26.5063 51.8825C26.3968 51.8301 26.3032 51.7414 26.2377 51.6278C26.1722 51.5142 26.1376 51.3808 26.1383 51.2446V49.9808C26.1366 49.9656 26.1379 49.9501 26.1422 49.9356C26.1465 49.921 26.1537 49.9078 26.1632 49.897C26.1726 49.8861 26.1841 49.8779 26.1968 49.8729C26.2095 49.868 26.223 49.8665 26.2363 49.8684H26.9459C26.9591 49.8665 26.9726 49.868 26.9853 49.8729C26.998 49.8779 27.0095 49.8861 27.019 49.897C27.0284 49.9078 27.0356 49.921 27.0399 49.9356C27.0442 49.9501 27.0456 49.9656 27.0438 49.9808V50.8253C27.0435 50.8397 27.0459 50.8539 27.051 50.8671C27.056 50.8802 27.0635 50.8919 27.073 50.9013C27.0916 50.9213 27.1163 50.9322 27.1418 50.9317H27.8885C27.914 50.9322 27.9387 50.9213 27.9573 50.9013C27.9666 50.8918 27.974 50.88 27.979 50.8669C27.9841 50.8538 27.9866 50.8397 27.9864 50.8253V47.9151C27.9862 47.8859 27.9957 47.8577 28.0129 47.8362C28.0212 47.8255 28.0314 47.817 28.0428 47.8112C28.0543 47.8055 28.0666 47.8026 28.0791 47.8027H28.794C28.8176 47.8001 28.8412 47.8077 28.8602 47.824Z" fill="#353535"/>
<path d="M32.1009 47.7905C32.1811 47.7899 32.2604 47.8085 32.3339 47.8452C32.4768 47.9153 32.5906 48.0459 32.6517 48.2097C32.6837 48.294 32.6999 48.3851 32.6993 48.4771V51.2263C32.6999 51.3182 32.6837 51.4093 32.6517 51.4936C32.6204 51.5758 32.5764 51.651 32.5219 51.7154C32.4679 51.7794 32.403 51.8301 32.3313 51.8642C32.2574 51.899 32.1782 51.9166 32.0983 51.9158H30.2766C30.1968 51.9166 30.1175 51.899 30.0436 51.8642C29.9341 51.8118 29.8405 51.7231 29.775 51.6095C29.7095 51.4959 29.6749 51.3625 29.6756 51.2263V48.4771C29.6757 48.3852 29.692 48.2943 29.7233 48.2097C29.753 48.1274 29.7972 48.053 29.853 47.991C29.9092 47.9286 29.9747 47.8782 30.0463 47.8422C30.1198 47.8055 30.1992 47.7869 30.2793 47.7875L32.1009 47.7905ZM31.7938 48.793H30.5864V50.9194H31.7938V48.793Z" fill="#353535"/>
<path d="M36.6472 51.8247C36.6526 51.8348 36.6554 51.8463 36.6554 51.8581C36.6554 51.8699 36.6526 51.8815 36.6472 51.8915C36.6406 51.901 36.6321 51.9085 36.6224 51.9133C36.6127 51.9181 36.6021 51.92 36.5916 51.9189H35.7734C35.7445 51.9181 35.7162 51.9087 35.6914 51.8915C35.6662 51.876 35.6451 51.8529 35.6305 51.8247L35.085 50.7038C35.0818 50.6958 35.0765 50.6892 35.0698 50.6849C35.0632 50.6805 35.0556 50.6786 35.048 50.6795H34.4363C34.4328 50.679 34.4291 50.6794 34.4257 50.6808C34.4223 50.6821 34.4192 50.6844 34.4167 50.6873C34.4141 50.6902 34.4122 50.6938 34.411 50.6977C34.4098 50.7016 34.4094 50.7057 34.4099 50.7098V51.8065C34.4116 51.8217 34.4103 51.8372 34.4059 51.8517C34.4016 51.8663 34.3945 51.8795 34.385 51.8904C34.3755 51.9012 34.364 51.9095 34.3513 51.9144C34.3387 51.9193 34.3252 51.9209 34.3119 51.9189H33.6023C33.589 51.9209 33.5755 51.9193 33.5629 51.9144C33.5502 51.9095 33.5387 51.9012 33.5292 51.8904C33.5197 51.8795 33.5126 51.8663 33.5082 51.8517C33.5039 51.8372 33.5026 51.8217 33.5043 51.8065V47.9029C33.5026 47.8877 33.5039 47.8722 33.5082 47.8577C33.5126 47.8431 33.5197 47.8299 33.5292 47.819C33.5387 47.8082 33.5502 47.8 33.5629 47.795C33.5755 47.7901 33.589 47.7885 33.6023 47.7905H35.927C36.0071 47.7899 36.0865 47.8085 36.16 47.8452C36.3025 47.9158 36.4162 48.0462 36.4777 48.2097C36.5096 48.2941 36.5259 48.3851 36.5254 48.4771V50.0294C36.5262 50.1751 36.4852 50.317 36.4089 50.4334C36.3362 50.5505 36.232 50.6369 36.1123 50.6795H36.0965C36.0717 50.6795 36.0665 50.6916 36.0806 50.7159L36.6472 51.8247ZM35.6225 48.7505H34.3834V49.7529H35.6225V48.7505Z" fill="#353535"/>
<path d="M41.4951 50.9164C41.5076 50.9162 41.5199 50.9191 41.5313 50.9249C41.5428 50.9307 41.553 50.9392 41.5613 50.9498C41.5785 50.9714 41.588 50.9996 41.5878 51.0288V51.8065C41.588 51.8357 41.5785 51.8639 41.5613 51.8855C41.553 51.8961 41.5428 51.9046 41.5313 51.9104C41.5199 51.9162 41.5076 51.9191 41.4951 51.9189H39.2736C39.2604 51.9209 39.2469 51.9193 39.2342 51.9144C39.2215 51.9095 39.21 51.9012 39.2005 51.8904C39.191 51.8795 39.1839 51.8663 39.1796 51.8517C39.1753 51.8372 39.1739 51.8217 39.1757 51.8065V47.9029C39.1739 47.8877 39.1753 47.8722 39.1796 47.8577C39.1839 47.8431 39.191 47.8299 39.2005 47.819C39.21 47.8082 39.2215 47.8 39.2342 47.795C39.2469 47.7901 39.2604 47.7885 39.2736 47.7905H39.9806C39.9939 47.7885 40.0074 47.7901 40.02 47.795C40.0327 47.8 40.0442 47.8082 40.0537 47.819C40.0632 47.8299 40.0703 47.8431 40.0746 47.8577C40.0789 47.8722 40.0803 47.8877 40.0785 47.9029V50.8131C40.0782 50.8275 40.0807 50.8417 40.0857 50.8548C40.0907 50.868 40.0982 50.8797 40.1077 50.8891C40.1264 50.9088 40.151 50.9197 40.1765 50.9194L41.4951 50.9164Z" fill="#353535"/>
<path d="M44.8153 47.8239C44.8246 47.8342 44.8319 47.8464 44.8369 47.86C44.8419 47.8736 44.8445 47.8882 44.8444 47.9029V48.6472C44.8446 48.6615 44.8421 48.6757 44.837 48.6888C44.832 48.7019 44.8246 48.7136 44.8153 48.7231C44.7965 48.7429 44.7719 48.7537 44.7465 48.7535H43.0228C43.0192 48.753 43.0156 48.7535 43.0122 48.7548C43.0088 48.7562 43.0057 48.7584 43.0031 48.7613C43.0006 48.7642 42.9987 48.7678 42.9975 48.7717C42.9963 48.7756 42.9959 48.7798 42.9963 48.7839V49.4279C42.9963 49.4431 42.9963 49.4522 43.0228 49.4522H44.4817C44.4942 49.4518 44.5066 49.4546 44.5181 49.4604C44.5295 49.4662 44.5397 49.4748 44.5479 49.4856C44.5651 49.5071 44.5746 49.5354 44.5744 49.5646V50.1539C44.5748 50.1832 44.5653 50.2115 44.5479 50.2329C44.5397 50.2437 44.5295 50.2523 44.5181 50.2581C44.5066 50.2639 44.4942 50.2667 44.4817 50.2663H43.0096C43.006 50.2658 43.0024 50.2663 42.9989 50.2676C42.9955 50.269 42.9924 50.2712 42.9899 50.2741C42.9874 50.2771 42.9854 50.2806 42.9842 50.2845C42.9831 50.2884 42.9827 50.2926 42.9831 50.2967V50.9346C42.9827 50.9387 42.9831 50.9429 42.9842 50.9468C42.9854 50.9507 42.9874 50.9543 42.9899 50.9572C42.9924 50.9601 42.9955 50.9623 42.9989 50.9637C43.0024 50.9651 43.006 50.9655 43.0096 50.965H44.7465C44.7594 50.9646 44.7723 50.9672 44.7844 50.9727C44.7964 50.9782 44.8074 50.9865 44.8166 50.997C44.8257 51.0075 44.8329 51.0201 44.8377 51.0339C44.8425 51.0477 44.8448 51.0625 44.8444 51.0774V51.8156C44.8448 51.8305 44.8425 51.8453 44.8377 51.8591C44.8329 51.8729 44.8257 51.8855 44.8166 51.896C44.8074 51.9065 44.7964 51.9148 44.7844 51.9203C44.7723 51.9258 44.7594 51.9284 44.7465 51.928H42.1914C42.1781 51.93 42.1646 51.9285 42.152 51.9235C42.1393 51.9186 42.1278 51.9103 42.1183 51.8995C42.1088 51.8886 42.1017 51.8754 42.0974 51.8609C42.0931 51.8463 42.0917 51.8308 42.0934 51.8156V47.9029C42.0934 47.8882 42.096 47.8735 42.1009 47.8599C42.1058 47.8463 42.113 47.8339 42.1221 47.8234C42.1312 47.813 42.142 47.8047 42.1539 47.7991C42.1658 47.7934 42.1786 47.7905 42.1914 47.7905H44.7465C44.7593 47.7905 44.772 47.7934 44.7839 47.7992C44.7957 47.8049 44.8064 47.8133 44.8153 47.8239Z" fill="#353535"/>
<path d="M48.0773 47.7905C48.1583 47.7896 48.2386 47.8082 48.3129 47.8452C48.4556 47.9156 48.5694 48.046 48.6307 48.2097C48.6627 48.294 48.6789 48.3851 48.6783 48.4771V51.8186C48.6787 51.8335 48.6764 51.8483 48.6716 51.8621C48.6668 51.876 48.6596 51.8885 48.6505 51.899C48.6413 51.9096 48.6303 51.9178 48.6183 51.9233C48.6062 51.9288 48.5933 51.9314 48.5804 51.931H47.8655C47.8395 51.931 47.8146 51.9192 47.7962 51.8981C47.7778 51.877 47.7675 51.8484 47.7675 51.8186V50.7615C47.7677 50.7323 47.7583 50.704 47.741 50.6825C47.7327 50.6718 47.7225 50.6633 47.7111 50.6576C47.6997 50.6518 47.6873 50.6489 47.6748 50.6491H46.6555C46.6426 50.6491 46.6299 50.652 46.618 50.6576C46.6061 50.6633 46.5953 50.6716 46.5862 50.682C46.5771 50.6924 46.5699 50.7048 46.565 50.7185C46.56 50.7321 46.5575 50.7467 46.5575 50.7615V51.8186C46.5592 51.8339 46.5579 51.8494 46.5536 51.8639C46.5493 51.8784 46.5421 51.8917 46.5326 51.9025C46.5232 51.9134 46.5117 51.9216 46.499 51.9265C46.4863 51.9315 46.4728 51.933 46.4595 51.931H45.7499C45.7367 51.933 45.7232 51.9315 45.7105 51.9265C45.6978 51.9216 45.6863 51.9134 45.6768 51.9025C45.6674 51.8917 45.6602 51.8784 45.6559 51.8639C45.6516 51.8494 45.6502 51.8339 45.652 51.8186V48.4771C45.6514 48.3854 45.6667 48.2946 45.697 48.2097C45.7266 48.1274 45.7708 48.0529 45.8267 47.991C45.8828 47.9284 45.9483 47.878 46.02 47.8422C46.0935 47.8055 46.1729 47.7869 46.253 47.7875L48.0773 47.7905ZM47.7702 49.756V48.7171H46.5628V49.756H47.7702Z" fill="#353535"/>
<path d="M52.4779 49.6983C52.4872 49.7085 52.4945 49.7208 52.4995 49.7343C52.5045 49.7479 52.5071 49.7625 52.5071 49.7772V51.2293C52.5077 51.3213 52.4914 51.4123 52.4594 51.4966C52.4281 51.5789 52.3842 51.654 52.3297 51.7184C52.2757 51.7825 52.2108 51.8331 52.139 51.8672C52.0651 51.9021 51.9859 51.9196 51.906 51.9189H50.0844C50.0045 51.9196 49.9253 51.9021 49.8514 51.8672C49.7418 51.8148 49.6483 51.7261 49.5827 51.6125C49.5172 51.4989 49.4826 51.3655 49.4833 51.2293V48.4801C49.4835 48.3882 49.4997 48.2973 49.531 48.2128C49.5607 48.1305 49.6049 48.056 49.6607 47.9941C49.7169 47.9316 49.7824 47.8812 49.854 47.8452C49.9275 47.8085 50.0069 47.7899 50.087 47.7905H52.2052C52.2312 47.7905 52.2561 47.8024 52.2745 47.8235C52.2929 47.8445 52.3032 47.8731 52.3032 47.9029V48.6806C52.3032 48.7104 52.2929 48.739 52.2745 48.7601C52.2561 48.7812 52.2312 48.793 52.2052 48.793H50.4815C50.456 48.7925 50.4313 48.8034 50.4127 48.8234C50.4034 48.8329 50.396 48.8446 50.391 48.8577C50.3859 48.8708 50.3834 48.885 50.3836 48.8993V50.8101C50.3834 50.8244 50.3859 50.8386 50.391 50.8517C50.396 50.8648 50.4034 50.8765 50.4127 50.886C50.4313 50.9061 50.456 50.917 50.4815 50.9164H51.5009C51.5133 50.9173 51.5257 50.9152 51.5373 50.9101C51.5489 50.9051 51.5594 50.8973 51.5682 50.8873C51.5769 50.8772 51.5837 50.8651 51.5881 50.8518C51.5925 50.8385 51.5944 50.8243 51.5936 50.8101V49.7772C51.5932 49.7624 51.5955 49.7476 51.6003 49.7337C51.6051 49.7199 51.6123 49.7074 51.6215 49.6968C51.6306 49.6863 51.6416 49.6781 51.6536 49.6726C51.6657 49.6671 51.6786 49.6644 51.6916 49.6649H52.4064C52.4197 49.6644 52.433 49.6671 52.4453 49.6729C52.4576 49.6786 52.4687 49.6873 52.4779 49.6983Z" fill="#353535"/>
<path d="M56.272 47.8239C56.2813 47.8342 56.2886 47.8465 56.2936 47.86C56.2986 47.8736 56.3012 47.8882 56.3012 47.9029V51.2445C56.3018 51.3365 56.2855 51.4275 56.2535 51.5118C56.2222 51.5941 56.1783 51.6692 56.1238 51.7336C56.0698 51.7977 56.0049 51.8484 55.9331 51.8824C55.8584 51.9176 55.7783 51.9351 55.6975 51.9341H53.8759C53.796 51.9348 53.7168 51.9172 53.6429 51.8824C53.498 51.8131 53.3829 51.681 53.3225 51.5149C53.2922 51.4301 53.2769 51.3392 53.2775 51.2475V47.906C53.2757 47.8907 53.2771 47.8752 53.2814 47.8607C53.2857 47.8462 53.2929 47.8329 53.3023 47.8221C53.3118 47.8112 53.3233 47.803 53.336 47.7981C53.3487 47.7931 53.3622 47.7916 53.3754 47.7936H54.085C54.0983 47.7916 54.1118 47.7931 54.1245 47.7981C54.1372 47.803 54.1487 47.8112 54.1581 47.8221C54.1676 47.8329 54.1748 47.8462 54.1791 47.8607C54.1834 47.8752 54.1847 47.8907 54.183 47.906V50.8162C54.1828 50.8305 54.1854 50.8447 54.1904 50.8578C54.1954 50.8709 54.2028 50.8826 54.2121 50.8921C54.2307 50.9121 54.2554 50.923 54.281 50.9225H55.3003C55.3126 50.9229 55.3248 50.9204 55.3362 50.9151C55.3475 50.9099 55.3579 50.9021 55.3665 50.8921C55.3752 50.8822 55.382 50.8703 55.3866 50.8573C55.3911 50.8442 55.3933 50.8302 55.393 50.8162V47.906C55.393 47.8912 55.3955 47.8766 55.4005 47.863C55.4054 47.8493 55.4126 47.8369 55.4217 47.8265C55.4308 47.8161 55.4416 47.8078 55.4535 47.8021C55.4654 47.7965 55.4781 47.7936 55.491 47.7936H56.2059C56.2305 47.7935 56.2542 47.8044 56.272 47.8239Z" fill="#353535"/>
<path d="M59.8386 47.8239C59.8478 47.8342 59.8551 47.8464 59.8601 47.86C59.8652 47.8736 59.8677 47.8882 59.8677 47.9029V48.6472C59.8678 48.6615 59.8653 48.6757 59.8603 48.6888C59.8553 48.7019 59.8479 48.7136 59.8386 48.7231C59.8198 48.7429 59.7952 48.7537 59.7697 48.7535H58.0461C58.0425 48.753 58.0388 48.7535 58.0354 48.7548C58.032 48.7562 58.0289 48.7584 58.0264 48.7613C58.0238 48.7642 58.0219 48.7678 58.0207 48.7717C58.0195 48.7756 58.0192 48.7798 58.0196 48.7839V49.4279C58.0196 49.4431 58.0196 49.4522 58.0461 49.4522H59.5182C59.5307 49.4518 59.5431 49.4546 59.5545 49.4604C59.566 49.4662 59.5762 49.4748 59.5844 49.4856C59.6016 49.5071 59.6111 49.5354 59.6109 49.5646V50.1539C59.6113 50.1832 59.6018 50.2115 59.5844 50.2329C59.5762 50.2437 59.566 50.2523 59.5545 50.2581C59.5431 50.2639 59.5307 50.2667 59.5182 50.2663H58.0461C58.0425 50.2658 58.0388 50.2663 58.0354 50.2676C58.032 50.269 58.0289 50.2712 58.0264 50.2741C58.0238 50.2771 58.0219 50.2806 58.0207 50.2845C58.0195 50.2884 58.0192 50.2926 58.0196 50.2967V50.9346C58.0192 50.9387 58.0195 50.9429 58.0207 50.9468C58.0219 50.9507 58.0238 50.9543 58.0264 50.9572C58.0289 50.9601 58.032 50.9623 58.0354 50.9637C58.0388 50.9651 58.0425 50.9655 58.0461 50.965H59.7697C59.7827 50.9646 59.7956 50.9672 59.8076 50.9727C59.8197 50.9782 59.8306 50.9865 59.8398 50.997C59.849 51.0075 59.8562 51.0201 59.861 51.0339C59.8658 51.0477 59.868 51.0625 59.8677 51.0774V51.8156C59.868 51.8305 59.8658 51.8453 59.861 51.8591C59.8562 51.8729 59.849 51.8855 59.8398 51.896C59.8306 51.9065 59.8197 51.9148 59.8076 51.9203C59.7956 51.9258 59.7827 51.9284 59.7697 51.928H57.2147C57.2014 51.93 57.1879 51.9285 57.1752 51.9235C57.1625 51.9186 57.151 51.9103 57.1416 51.8995C57.1321 51.8886 57.1249 51.8754 57.1206 51.8609C57.1163 51.8463 57.115 51.8308 57.1167 51.8156V47.9029C57.1167 47.8731 57.127 47.8445 57.1454 47.8234C57.1638 47.8024 57.1887 47.7905 57.2147 47.7905H59.7697C59.7826 47.7905 59.7953 47.7934 59.8071 47.7992C59.8189 47.8049 59.8296 47.8133 59.8386 47.8239Z" fill="#353535"/>
<path d="M65.3565 47.7905C65.3695 47.7901 65.3824 47.7927 65.3944 47.7982C65.4065 47.8037 65.4174 47.8119 65.4266 47.8225C65.4358 47.833 65.443 47.8455 65.4477 47.8594C65.4525 47.8732 65.4548 47.888 65.4545 47.9029V51.8095C65.4548 51.8243 65.4525 51.8391 65.4477 51.853C65.443 51.8668 65.4358 51.8794 65.4266 51.8899C65.4174 51.9004 65.4065 51.9087 65.3944 51.9142C65.3824 51.9197 65.3695 51.9223 65.3565 51.9219H64.6416C64.6156 51.9219 64.5907 51.91 64.5723 51.8889C64.554 51.8679 64.5436 51.8393 64.5436 51.8095V50.4455C64.5444 50.4313 64.5426 50.4171 64.5382 50.4038C64.5338 50.3905 64.527 50.3784 64.5182 50.3683C64.5095 50.3583 64.4989 50.3505 64.4873 50.3455C64.4757 50.3404 64.4633 50.3383 64.451 50.3392H63.4316C63.4061 50.3389 63.3815 50.3498 63.3628 50.3696C63.3533 50.379 63.3458 50.3907 63.3408 50.4038C63.3357 50.4169 63.3333 50.4312 63.3336 50.4455V51.8095C63.3354 51.8247 63.334 51.8402 63.3297 51.8547C63.3254 51.8693 63.3182 51.8825 63.3088 51.8934C63.2993 51.9042 63.2878 51.9124 63.2751 51.9174C63.2624 51.9223 63.2489 51.9239 63.2357 51.9219H62.5261C62.5128 51.9239 62.4993 51.9223 62.4866 51.9174C62.4739 51.9124 62.4624 51.9042 62.453 51.8934C62.4435 51.8825 62.4363 51.8693 62.432 51.8547C62.4277 51.8402 62.4264 51.8247 62.4281 51.8095V47.9029C62.4264 47.8876 62.4277 47.8722 62.432 47.8576C62.4363 47.8431 62.4435 47.8298 62.453 47.819C62.4624 47.8081 62.4739 47.7999 62.4866 47.795C62.4993 47.79 62.5128 47.7885 62.5261 47.7905H63.2357C63.2489 47.7885 63.2624 47.79 63.2751 47.795C63.2878 47.7999 63.2993 47.8081 63.3088 47.819C63.3182 47.8298 63.3254 47.8431 63.3297 47.8576C63.334 47.8722 63.3354 47.8876 63.3336 47.9029V49.2122C63.3319 49.2274 63.3332 49.2429 63.3375 49.2574C63.3418 49.272 63.349 49.2852 63.3585 49.296C63.368 49.3069 63.3795 49.3151 63.3921 49.3201C63.4048 49.325 63.4183 49.3265 63.4316 49.3246H64.451C64.4634 49.3247 64.4758 49.3218 64.4872 49.3161C64.4986 49.3103 64.5088 49.3018 64.5172 49.2911C64.5344 49.2696 64.5438 49.2414 64.5436 49.2122V47.8907C64.5436 47.8609 64.554 47.8323 64.5723 47.8112C64.5907 47.7902 64.6156 47.7783 64.6416 47.7783L65.3565 47.7905Z" fill="#353535"/>
<path d="M68.69 47.7905C68.771 47.7896 68.8513 47.8082 68.9256 47.8452C69.0683 47.9156 69.182 48.046 69.2434 48.2097C69.2754 48.294 69.2916 48.3851 69.291 48.4771V51.8186C69.2914 51.8335 69.2891 51.8483 69.2843 51.8621C69.2795 51.876 69.2723 51.8885 69.2631 51.899C69.254 51.9096 69.243 51.9178 69.231 51.9233C69.2189 51.9288 69.206 51.9314 69.193 51.931H68.4782C68.4522 51.931 68.4273 51.9192 68.4089 51.8981C68.3905 51.877 68.3802 51.8484 68.3802 51.8186V50.7615C68.3804 50.7323 68.3709 50.704 68.3537 50.6825C68.3454 50.6718 68.3352 50.6633 68.3238 50.6576C68.3124 50.6518 68.3 50.6489 68.2875 50.6491H67.2681C67.2553 50.6491 67.2425 50.652 67.2307 50.6576C67.2188 50.6633 67.208 50.6716 67.1989 50.682C67.1898 50.6924 67.1826 50.7048 67.1776 50.7185C67.1727 50.7321 67.1702 50.7467 67.1702 50.7615V51.8186C67.1719 51.8339 67.1706 51.8494 67.1663 51.8639C67.162 51.8784 67.1548 51.8917 67.1453 51.9025C67.1359 51.9134 67.1243 51.9216 67.1117 51.9265C67.099 51.9315 67.0855 51.933 67.0722 51.931H66.3626C66.3493 51.933 66.3358 51.9315 66.3232 51.9265C66.3105 51.9216 66.299 51.9134 66.2895 51.9025C66.28 51.8917 66.2729 51.8784 66.2686 51.8639C66.2643 51.8494 66.2629 51.8339 66.2647 51.8186V48.4771C66.2641 48.3854 66.2794 48.2946 66.3097 48.2097C66.3393 48.1274 66.3835 48.0529 66.4394 47.991C66.4955 47.9284 66.561 47.878 66.6327 47.8422C66.7062 47.8055 66.7855 47.7869 66.8657 47.7875L68.69 47.7905ZM68.3828 49.756V48.7171H67.1728V49.756H68.3828Z" fill="#353535"/>
<path d="M71.0226 48.8234C71.0131 48.8328 71.0056 48.8445 71.0006 48.8576C70.9956 48.8708 70.9931 48.885 70.9935 48.8994V50.8101C70.9931 50.8245 70.9956 50.8387 71.0006 50.8518C71.0056 50.865 71.0131 50.8767 71.0226 50.8861C71.0413 50.9058 71.0659 50.9167 71.0914 50.9165H72.7436C72.7566 50.916 72.7695 50.9187 72.7815 50.9242C72.7936 50.9297 72.8045 50.9379 72.8137 50.9484C72.8229 50.959 72.8301 50.9715 72.8349 50.9853C72.8396 50.9992 72.8419 51.014 72.8416 51.0289V51.8065C72.8419 51.8214 72.8396 51.8362 72.8349 51.85C72.8301 51.8639 72.8229 51.8764 72.8137 51.8869C72.8045 51.8975 72.7936 51.9057 72.7815 51.9112C72.7695 51.9167 72.7566 51.9193 72.7436 51.9189H70.6943C70.6144 51.9196 70.5352 51.9021 70.4613 51.8673C70.3889 51.8328 70.3232 51.7822 70.268 51.7184C70.2123 51.6552 70.1682 51.5798 70.1382 51.4967C70.1069 51.4121 70.0907 51.3212 70.0906 51.2293V48.4801C70.0907 48.3883 70.1069 48.2974 70.1382 48.2128C70.1678 48.1304 70.212 48.0559 70.268 47.9941C70.3242 47.9317 70.3896 47.8813 70.4613 47.8452C70.5347 47.8086 70.6141 47.79 70.6943 47.7906H72.7462C72.7592 47.7902 72.7721 47.7928 72.7842 47.7983C72.7962 47.8038 72.8072 47.812 72.8163 47.8226C72.8255 47.8331 72.8327 47.8456 72.8375 47.8595C72.8423 47.8733 72.8446 47.8881 72.8442 47.903V48.6806C72.8446 48.6955 72.8423 48.7103 72.8375 48.7241C72.8327 48.738 72.8255 48.7505 72.8163 48.761C72.8072 48.7716 72.7962 48.7798 72.7842 48.7853C72.7721 48.7908 72.7592 48.7935 72.7462 48.793H71.0914C71.0659 48.7928 71.0413 48.8037 71.0226 48.8234Z" fill="#353535"/>
<path d="M75.7037 49.516C75.6994 49.522 75.6971 49.5295 75.6971 49.5372C75.6971 49.545 75.6994 49.5525 75.7037 49.5585L76.9084 51.8125C76.9138 51.8226 76.9167 51.8342 76.9167 51.846C76.9167 51.8578 76.9138 51.8693 76.9084 51.8794C76.9019 51.8889 76.8934 51.8964 76.8837 51.9011C76.8739 51.9059 76.8634 51.9078 76.8528 51.9067H75.9897C75.9607 51.9059 75.9324 51.8965 75.9076 51.8794C75.8824 51.8638 75.8614 51.8407 75.8467 51.8125L75.0709 50.2025C75.0709 50.1843 75.0524 50.1813 75.0444 50.2025L74.6235 50.7311C74.6042 50.7556 74.5898 50.7846 74.5811 50.8162C74.5697 50.8491 74.5634 50.884 74.5626 50.9194V51.7913C74.5643 51.8065 74.563 51.822 74.5587 51.8365C74.5543 51.8511 74.5472 51.8643 74.5377 51.8752C74.5282 51.886 74.5167 51.8943 74.5041 51.8992C74.4914 51.9041 74.4779 51.9057 74.4646 51.9037H73.755C73.7417 51.9057 73.7282 51.9041 73.7156 51.8992C73.7029 51.8943 73.6914 51.886 73.6819 51.8752C73.6724 51.8643 73.6653 51.8511 73.661 51.8365C73.6567 51.822 73.6553 51.8065 73.657 51.7913V47.9029C73.6553 47.8877 73.6567 47.8722 73.661 47.8577C73.6653 47.8431 73.6724 47.8299 73.6819 47.819C73.6914 47.8082 73.7029 47.8 73.7156 47.795C73.7282 47.7901 73.7417 47.7885 73.755 47.7905H74.4646C74.4779 47.7885 74.4914 47.7901 74.5041 47.795C74.5167 47.8 74.5282 47.8082 74.5377 47.819C74.5472 47.8299 74.5543 47.8431 74.5587 47.8577C74.563 47.8722 74.5643 47.8877 74.5626 47.9029V49.6557L75.8864 47.8725C75.9062 47.8474 75.9306 47.8276 75.9579 47.8148C75.9852 47.7998 76.015 47.7915 76.0453 47.7905H76.8978C76.9243 47.7905 76.9402 47.7905 76.9455 47.8148C76.9508 47.8391 76.9455 47.8513 76.927 47.8725L75.7037 49.516Z" fill="#353535"/>
<path d="M78.4758 51.8095C78.4776 51.8247 78.4762 51.8402 78.4719 51.8548C78.4676 51.8693 78.4605 51.8825 78.451 51.8934C78.4415 51.9043 78.43 51.9125 78.4173 51.9174C78.4046 51.9224 78.3911 51.9239 78.3779 51.9219H77.6683C77.655 51.9239 77.6415 51.9224 77.6288 51.9174C77.6162 51.9125 77.6046 51.9043 77.5952 51.8934C77.5857 51.8825 77.5785 51.8693 77.5742 51.8548C77.5699 51.8402 77.5686 51.8247 77.5703 51.8095V47.9029C77.5686 47.8877 77.5699 47.8722 77.5742 47.8577C77.5785 47.8431 77.5857 47.8299 77.5952 47.819C77.6046 47.8082 77.6162 47.8 77.6288 47.795C77.6415 47.7901 77.655 47.7885 77.6683 47.7905H78.3726C78.3859 47.7885 78.3993 47.7901 78.412 47.795C78.4247 47.8 78.4362 47.8082 78.4457 47.819C78.4552 47.8299 78.4623 47.8431 78.4666 47.8577C78.4709 47.8722 78.4723 47.8877 78.4705 47.9029L78.4758 51.8095Z" fill="#353535"/>
<path d="M81.9391 47.8452C82.0816 47.9158 82.1953 48.0462 82.2568 48.2097C82.2887 48.2941 82.3049 48.3851 82.3045 48.4771V51.8186C82.3049 51.8335 82.3026 51.8483 82.2978 51.8621C82.293 51.876 82.2858 51.8885 82.2766 51.8991C82.2674 51.9096 82.2565 51.9178 82.2444 51.9233C82.2324 51.9288 82.2195 51.9315 82.2065 51.931H81.4916C81.4792 51.9312 81.4668 51.9283 81.4554 51.9226C81.444 51.9168 81.4338 51.9083 81.4254 51.8976C81.4082 51.8761 81.3988 51.8479 81.399 51.8186V48.9084C81.3991 48.8941 81.3966 48.8799 81.3916 48.8668C81.3865 48.8537 81.3791 48.842 81.3698 48.8325C81.3512 48.8125 81.3265 48.8016 81.301 48.8021H80.2816C80.2562 48.8019 80.2316 48.8127 80.2128 48.8325C80.2034 48.8419 80.1958 48.8536 80.1908 48.8667C80.1858 48.8798 80.1833 48.8941 80.1837 48.9084V51.8186C80.1854 51.8339 80.1841 51.8494 80.1797 51.8639C80.1754 51.8784 80.1683 51.8917 80.1588 51.9025C80.1493 51.9134 80.1378 51.9216 80.1251 51.9266C80.1125 51.9315 80.099 51.933 80.0857 51.931H79.3761C79.3628 51.933 79.3493 51.9315 79.3367 51.9266C79.324 51.9216 79.3125 51.9134 79.303 51.9025C79.2935 51.8917 79.2864 51.8784 79.2821 51.8639C79.2777 51.8494 79.2764 51.8339 79.2781 51.8186V47.9029C79.2764 47.8877 79.2777 47.8722 79.2821 47.8577C79.2864 47.8431 79.2935 47.8299 79.303 47.819C79.3125 47.8082 79.324 47.8 79.3367 47.795C79.3493 47.7901 79.3628 47.7885 79.3761 47.7905H81.7008C81.7827 47.789 81.864 47.8077 81.9391 47.8452Z" fill="#353535"/>
<path d="M86.1041 49.6983C86.1133 49.7085 86.1206 49.7208 86.1257 49.7343C86.1307 49.7479 86.1332 49.7625 86.1332 49.7772V51.2293C86.1338 51.3213 86.1176 51.4123 86.0855 51.4966C86.0542 51.5789 86.0103 51.654 85.9558 51.7184C85.9018 51.7825 85.8369 51.8331 85.7652 51.8672C85.6913 51.9021 85.612 51.9196 85.5322 51.9189H83.7105C83.6306 51.9196 83.5514 51.9021 83.4775 51.8672C83.3679 51.8148 83.2744 51.7261 83.2089 51.6125C83.1434 51.4989 83.1088 51.3655 83.1095 51.2293V48.4801C83.1096 48.3882 83.1258 48.2973 83.1572 48.2128C83.1869 48.1305 83.231 48.056 83.2869 47.9941C83.3431 47.9316 83.4085 47.8812 83.4802 47.8452C83.5537 47.8085 83.633 47.7899 83.7132 47.7905H85.8314C85.8442 47.7905 85.8569 47.7934 85.8688 47.7991C85.8807 47.8047 85.8915 47.813 85.9006 47.8235C85.9097 47.8339 85.9169 47.8463 85.9219 47.8599C85.9268 47.8736 85.9293 47.8882 85.9293 47.9029V48.6806C85.9293 48.6954 85.9268 48.71 85.9219 48.7236C85.9169 48.7373 85.9097 48.7496 85.9006 48.7601C85.8915 48.7705 85.8807 48.7788 85.8688 48.7845C85.8569 48.7901 85.8442 48.793 85.8314 48.793H84.1077C84.0822 48.7925 84.0575 48.8034 84.0388 48.8234C84.0296 48.8329 84.0221 48.8446 84.0171 48.8577C84.0121 48.8708 84.0096 48.885 84.0097 48.8993V50.8101C84.0096 50.8244 84.0121 50.8386 84.0171 50.8517C84.0221 50.8648 84.0296 50.8765 84.0388 50.886C84.0575 50.9061 84.0822 50.917 84.1077 50.9164H85.1271C85.1394 50.9173 85.1518 50.9152 85.1634 50.9101C85.175 50.9051 85.1855 50.8973 85.1943 50.8873C85.2031 50.8772 85.2099 50.8651 85.2143 50.8518C85.2186 50.8385 85.2205 50.8243 85.2197 50.8101V49.7772C85.2194 49.7624 85.2216 49.7476 85.2264 49.7337C85.2312 49.7199 85.2384 49.7074 85.2476 49.6968C85.2568 49.6863 85.2677 49.6781 85.2798 49.6726C85.2918 49.6671 85.3047 49.6644 85.3177 49.6649H86.0326C86.0459 49.6644 86.0591 49.6671 86.0714 49.6729C86.0837 49.6786 86.0948 49.6873 86.1041 49.6983Z" fill="#353535"/>
<path d="M39.6735 19.3574C40.5792 19.7991 41.3011 20.6252 41.6884 21.6631C41.8944 22.1958 41.9999 22.7724 41.9982 23.3552V45.0237C41.9993 45.117 41.984 45.2096 41.9534 45.296C41.9228 45.3825 41.8774 45.461 41.8199 45.5269C41.7624 45.5929 41.6939 45.645 41.6186 45.6801C41.5433 45.7153 41.4626 45.7327 41.3813 45.7315H36.8616C36.7823 45.7352 36.7033 45.7189 36.6301 45.6837C36.5569 45.6485 36.4913 45.5954 36.438 45.528C36.3296 45.3912 36.2717 45.2115 36.2765 45.0268V25.3297H32.6358V45.0268C32.6403 45.2115 32.5824 45.391 32.4743 45.528C32.4209 45.5952 32.3553 45.6483 32.2821 45.6834C32.2089 45.7186 32.1299 45.735 32.0507 45.7315H27.9573C27.876 45.7327 27.7953 45.7153 27.72 45.6801C27.6446 45.645 27.5762 45.5929 27.5187 45.5269C27.4612 45.461 27.4158 45.3825 27.3852 45.296C27.3545 45.2096 27.3393 45.117 27.3404 45.0237V25.3297H23.6998V45.0268C23.7117 45.1229 23.704 45.2209 23.6772 45.313C23.6504 45.4052 23.6053 45.4889 23.5455 45.5575C23.4856 45.6262 23.4126 45.6779 23.3324 45.7087C23.2521 45.7394 23.1666 45.7483 23.0828 45.7346H18.5976C18.5138 45.7483 18.4284 45.7394 18.3481 45.7087C18.2678 45.6779 18.1948 45.6262 18.135 45.5575C18.0751 45.4889 18.03 45.4052 18.0032 45.313C17.9765 45.2209 17.9687 45.1229 17.9807 45.0268V19.7128C17.9687 19.6167 17.9765 19.5187 18.0032 19.4266C18.03 19.3344 18.0751 19.2507 18.135 19.1821C18.1948 19.1134 18.2678 19.0617 18.3481 19.0309C18.4284 19.0002 18.5138 18.9913 18.5976 19.005H38.1908C38.7011 19.0016 39.2063 19.1217 39.6735 19.3574Z" fill="#C53C02"/>
<path d="M39.6735 19.3574C40.5792 19.7991 41.3011 20.6252 41.6884 21.6631C41.8944 22.1958 41.9999 22.7724 41.9982 23.3552V25.2872L36.2791 25.3267H23.6998L17.9807 25.2872V19.7128C17.9687 19.6167 17.9765 19.5187 18.0032 19.4266C18.03 19.3344 18.0751 19.2507 18.135 19.1821C18.1948 19.1134 18.2678 19.0617 18.3481 19.0309C18.4284 19.0002 18.5138 18.9913 18.5976 19.005H38.1908C38.7011 19.0016 39.2063 19.1217 39.6735 19.3574Z" fill="#751B00"/>
<path d="M61.6919 39.2452C61.7752 39.2418 61.8581 39.2587 61.9353 39.2948C62.0124 39.331 62.082 39.3855 62.1394 39.4548C62.2538 39.5942 62.3157 39.7798 62.3115 39.9713V45.011C62.316 45.2025 62.2541 45.3882 62.1394 45.5274C62.082 45.5967 62.0124 45.6513 61.9353 45.6874C61.8581 45.7235 61.7752 45.7404 61.6919 45.737H46.2212C46.1341 45.7528 46.0449 45.7452 45.9607 45.7147C45.8765 45.6842 45.7997 45.6317 45.7363 45.5613C45.6728 45.4909 45.6246 45.4045 45.5952 45.309C45.5659 45.2135 45.5563 45.1114 45.5673 45.011V19.7305C45.5563 19.63 45.5659 19.5279 45.5952 19.4324C45.6246 19.3369 45.6728 19.2505 45.7363 19.1801C45.7997 19.1097 45.8765 19.0572 45.9607 19.0267C46.0449 18.9962 46.1341 18.9886 46.2212 19.0044H50.9713C51.0588 18.9875 51.1486 18.9943 51.2335 19.0243C51.3184 19.0544 51.3959 19.1067 51.46 19.1773C51.524 19.2478 51.5728 19.3346 51.6025 19.4307C51.6321 19.5267 51.6417 19.6294 51.6305 19.7305V38.5648C51.6282 38.6584 51.6441 38.7514 51.677 38.8371C51.71 38.9228 51.7593 38.9989 51.8212 39.0599C51.9498 39.1891 52.1163 39.2575 52.2872 39.2513L61.6919 39.2452Z" fill="#265A8F"/>
<path d="M51.5777 45.737H46.2187C46.1318 45.7523 46.0429 45.7443 45.959 45.7135C45.8752 45.6828 45.7987 45.6302 45.7356 45.5598C45.6725 45.4895 45.6245 45.4033 45.5953 45.3081C45.5661 45.2128 45.5565 45.1111 45.5674 45.0109V19.7304C45.5565 19.6302 45.5661 19.5285 45.5953 19.4333C45.6245 19.338 45.6725 19.2519 45.7356 19.1815C45.7987 19.1112 45.8752 19.0585 45.959 19.0278C46.0429 18.9971 46.1318 18.9891 46.2187 19.0044H50.9582C51.0451 18.9891 51.134 18.9971 51.2179 19.0278C51.3017 19.0585 51.3781 19.1112 51.4413 19.1815C51.5044 19.2519 51.5524 19.338 51.5816 19.4333C51.6108 19.5285 51.6204 19.6302 51.6095 19.7304V38.5647C51.6122 38.7622 51.5777 45.737 51.5777 45.737Z" fill="#162F51"/>
<path d="M85.4766 19.0044C85.5629 19.0018 85.6489 19.019 85.7293 19.055C85.8098 19.091 85.8832 19.145 85.9452 19.214C86.0066 19.2801 86.0553 19.3602 86.0882 19.4491C86.121 19.538 86.1372 19.6339 86.1359 19.7304V45.0838C86.1374 45.1804 86.1212 45.2763 86.0884 45.3653C86.0555 45.4543 86.0068 45.5343 85.9452 45.6003C85.8832 45.6692 85.8098 45.7233 85.7293 45.7593C85.6489 45.7953 85.5629 45.8125 85.4766 45.8099H80.663C80.5767 45.8127 80.4907 45.7956 80.4102 45.7596C80.3297 45.7236 80.2563 45.6694 80.1944 45.6003C80.1328 45.5343 80.0841 45.4543 80.0512 45.3653C80.0184 45.2763 80.0022 45.1804 80.0037 45.0838V36.2378C80.0069 36.1456 79.9932 36.0536 79.9636 35.9678C79.9339 35.882 79.889 35.8043 79.8316 35.7396C79.7714 35.6751 79.7006 35.625 79.6233 35.5921C79.546 35.5592 79.4639 35.5443 79.3815 35.5482H72.6298C72.4582 35.5422 72.2909 35.6105 72.1612 35.7396C72.0991 35.8011 72.0497 35.8778 72.0167 35.964C71.9837 36.0501 71.968 36.1437 71.9705 36.2378V45.0838C71.9705 45.5699 71.7517 45.8129 71.3139 45.8129H66.548C66.1085 45.8129 65.8896 45.5699 65.8914 45.0838V19.7456C65.8914 19.2616 66.1102 19.0186 66.548 19.0166H71.3139C71.7517 19.0166 71.9705 19.2596 71.9705 19.7456V28.3092C71.9705 28.7952 72.1894 29.0382 72.6272 29.0382H79.3789C79.4626 29.0419 79.546 29.0251 79.6236 28.989C79.7012 28.9529 79.7712 28.8982 79.829 28.8286C79.9435 28.6893 80.0053 28.5036 80.0011 28.3122V19.7456C79.9996 19.649 80.0157 19.5531 80.0486 19.4642C80.0814 19.3752 80.1302 19.2952 80.1917 19.2292C80.2537 19.1602 80.3271 19.1062 80.4076 19.0702C80.4881 19.0342 80.574 19.017 80.6604 19.0196L85.4766 19.0044Z" fill="#FDEE00"/>
<path d="M71.9731 36.2378V45.0839C71.9731 45.5699 71.7542 45.8129 71.3165 45.8129H66.5506C66.111 45.8129 65.8922 45.5699 65.8939 45.0839V19.7457C65.8939 19.2617 66.1128 19.0186 66.5506 19.0166H71.3165C71.7542 19.0166 71.9731 19.2596 71.9731 19.7457V36.253V36.2378Z" fill="#ECC700"/>
<path d="M85.4764 19.0044C85.5628 19.0018 85.6487 19.019 85.7292 19.055C85.8097 19.091 85.8831 19.145 85.9451 19.214C86.0065 19.2801 86.0552 19.3602 86.088 19.4491C86.1208 19.538 86.1371 19.6339 86.1357 19.7304V45.0838C86.1372 45.1804 86.1211 45.2763 86.0882 45.3653C86.0554 45.4543 86.0066 45.5343 85.9451 45.6003C85.8831 45.6692 85.8097 45.7233 85.7292 45.7593C85.6487 45.7953 85.5628 45.8125 85.4764 45.8099H80.6629C80.5765 45.8127 80.4905 45.7956 80.41 45.7596C80.3295 45.7235 80.2561 45.6694 80.1942 45.6003C80.1327 45.5343 80.0839 45.4543 80.0511 45.3653C80.0182 45.2763 80.002 45.1804 80.0036 45.0838V19.7456C80.002 19.649 80.0182 19.5531 80.0511 19.4642C80.0839 19.3752 80.1327 19.2952 80.1942 19.2292C80.2562 19.1602 80.3296 19.1062 80.4101 19.0702C80.4906 19.0342 80.5765 19.017 80.6629 19.0196L85.4764 19.0044Z" fill="#ECC700"/>
</g>
<defs>
<clipPath id="clip0">
<rect width="104" height="209" fill="white"/>
</clipPath>
</defs>
</svg>
