<?xml version="1.0" encoding="utf-8"?>
<!-- Generator: Adobe Illustrator 22.1.0, SVG Export Plug-In . SVG Version: 6.00 Build 0)  -->
<svg version="1.1" id="Layer_1" xmlns="http://www.w3.org/2000/svg" xmlns:xlink="http://www.w3.org/1999/xlink" x="0px" y="0px"
	 viewBox="0 0 480 170" style="enable-background:new 0 0 480 170;" xml:space="preserve">
<style type="text/css">
	.st0{fill:#F0F0F0;}
	.st1{fill:#F9AA40;}
	.st2{fill:#ED4C40;}
	.st3{fill:#F48C45;}
	.st4{fill:#9C73B0;}
	.st5{fill:#51BB8D;}
	.st6{fill:#6E4698;}
</style>
<g>
	<path class="st0" d="M175.4,54.5c1.3,2,3,3.5,5.1,4.4c2.1,0.9,4.2,1.4,6.4,1.4c1.2,0,2.5-0.2,3.7-0.6c1.3-0.4,2.4-1,3.5-1.7
		c1-0.8,1.9-1.7,2.6-2.8c0.7-1.1,1-2.4,1-3.9c0-2.1-0.7-3.7-2-4.8c-1.3-1.1-3-2-4.9-2.8c-2-0.7-4.1-1.5-6.4-2.1
		c-2.3-0.7-4.5-1.6-6.4-2.9c-2-1.2-3.6-2.9-4.9-4.9c-1.3-2.1-2-4.9-2-8.4c0-1.6,0.3-3.3,1-5c0.7-1.8,1.8-3.4,3.2-4.9
		c1.5-1.5,3.4-2.7,5.7-3.7c2.3-1,5.1-1.5,8.4-1.5c3,0,5.8,0.4,8.5,1.2c2.7,0.8,5.1,2.5,7.1,5l-6,5.4c-0.9-1.4-2.2-2.6-3.9-3.4
		c-1.7-0.9-3.6-1.3-5.7-1.3c-2,0-3.7,0.3-5.1,0.8c-1.4,0.5-2.4,1.2-3.2,2.1c-0.8,0.8-1.4,1.7-1.7,2.7c-0.3,1-0.5,1.9-0.5,2.7
		c0,2.3,0.7,4.1,2,5.3c1.3,1.2,3,2.2,4.9,3c2,0.8,4.1,1.5,6.4,2.1c2.3,0.6,4.5,1.5,6.4,2.6c2,1.1,3.6,2.6,4.9,4.4
		c1.3,1.9,2,4.4,2,7.7c0,2.6-0.5,4.9-1.5,7c-1,2.1-2.3,3.9-4,5.3c-1.7,1.4-3.7,2.5-6,3.3c-2.3,0.8-4.7,1.1-7.3,1.1
		c-3.5,0-6.8-0.6-9.9-1.8c-3.1-1.2-5.6-3.1-7.4-5.7L175.4,54.5z"/>
	<path class="st0" d="M233.9,35.5h-9.9v16.4c0,1,0,2,0.1,3c0.1,1,0.2,1.9,0.6,2.7c0.3,0.8,0.8,1.4,1.5,1.9c0.7,0.5,1.7,0.7,3,0.7
		c0.8,0,1.7-0.1,2.5-0.2c0.9-0.2,1.7-0.4,2.4-0.8v6.3c-0.8,0.5-1.9,0.8-3.2,1c-1.3,0.2-2.3,0.3-3,0.3c-2.7,0-4.7-0.4-6.2-1.1
		c-1.5-0.7-2.5-1.7-3.2-2.9c-0.7-1.2-1.1-2.5-1.2-3.9c-0.1-1.5-0.2-2.9-0.2-4.4V35.5h-8v-6h8V19.4h6.9v10.2h9.9V35.5z"/>
	<path class="st0" d="M243,34c1.9-1.8,4.2-3.1,6.7-4c2.5-0.9,5.1-1.3,7.6-1.3c2.7,0,4.9,0.3,6.8,1c1.9,0.7,3.5,1.6,4.7,2.7
		c1.2,1.1,2.1,2.4,2.7,3.9c0.6,1.5,0.9,3,0.9,4.6v18.5c0,1.3,0,2.4,0.1,3.5c0.1,1.1,0.1,2.1,0.2,3.1h-6.1c-0.2-1.8-0.2-3.7-0.2-5.5
		h-0.2c-1.5,2.3-3.3,4-5.4,5c-2.1,1-4.5,1.5-7.3,1.5c-1.7,0-3.3-0.2-4.8-0.7s-2.9-1.1-4-2.1c-1.1-0.9-2.1-2.1-2.7-3.4
		c-0.7-1.4-1-2.9-1-4.7c0-2.3,0.5-4.3,1.6-5.9c1-1.6,2.5-2.9,4.3-3.9c1.8-1,3.9-1.7,6.3-2.1c2.4-0.4,5-0.6,7.8-0.6h5v-1.5
		c0-0.9-0.2-1.8-0.5-2.8c-0.4-0.9-0.9-1.7-1.6-2.5c-0.7-0.7-1.6-1.3-2.7-1.8c-1.1-0.4-2.3-0.6-3.8-0.6c-1.3,0-2.5,0.1-3.5,0.4
		c-1,0.3-1.9,0.6-2.7,1c-0.8,0.4-1.6,0.8-2.2,1.3c-0.7,0.5-1.3,1-1.9,1.5L243,34z M262.4,48.3c-1.6,0-3.3,0.1-5,0.3
		c-1.7,0.2-3.3,0.5-4.7,1c-1.4,0.5-2.6,1.2-3.4,2.1c-0.9,0.9-1.3,2.1-1.3,3.5c0,2.1,0.7,3.6,2.1,4.5c1.4,0.9,3.3,1.4,5.7,1.4
		c1.9,0,3.5-0.3,4.8-1c1.3-0.6,2.4-1.5,3.2-2.5c0.8-1,1.4-2.2,1.8-3.4c0.4-1.2,0.5-2.5,0.5-3.7v-2.3H262.4z"/>
	<path class="st0" d="M282.5,29.5h6.9v5.6h0.2c0.9-1.9,2.4-3.5,4.5-4.7c2.1-1.2,4.6-1.8,7.4-1.8c1.7,0,3.4,0.3,5,0.8
		c1.6,0.5,3,1.4,4.2,2.5c1.2,1.1,2.2,2.6,2.9,4.3c0.7,1.8,1.1,3.8,1.1,6.2v23.3h-6.9V44.4c0-1.7-0.2-3.1-0.7-4.3
		c-0.5-1.2-1.1-2.2-1.8-2.9c-0.8-0.7-1.6-1.3-2.6-1.6c-1-0.3-2-0.5-3.1-0.5c-1.4,0-2.8,0.2-4,0.7c-1.2,0.5-2.3,1.2-3.2,2.2
		c-0.9,1-1.6,2.3-2.1,3.8c-0.5,1.5-0.8,3.3-0.8,5.4v18.7h-6.9V29.5z"/>
	<path class="st0" d="M361.3,65.8h-6.9v-5.2h-0.2c-1.3,1.9-3.1,3.4-5.5,4.5c-2.3,1.1-4.7,1.6-7.2,1.6c-2.8,0-5.3-0.5-7.6-1.5
		s-4.2-2.3-5.8-4.1c-1.6-1.7-2.8-3.7-3.7-6c-0.9-2.3-1.3-4.8-1.3-7.5c0-2.7,0.4-5.2,1.3-7.5c0.9-2.3,2.1-4.3,3.7-6
		c1.6-1.7,3.5-3,5.8-4c2.3-1,4.8-1.5,7.6-1.5c2.6,0,5,0.5,7.3,1.6c2.3,1.1,4.1,2.6,5.3,4.5h0.2V8h6.9V65.8z M342.5,60.3
		c1.8,0,3.5-0.3,5-1c1.5-0.6,2.7-1.5,3.7-2.6c1-1.1,1.8-2.4,2.4-4c0.6-1.6,0.8-3.2,0.8-5.1s-0.3-3.5-0.8-5.1c-0.6-1.6-1.4-2.9-2.4-4
		c-1-1.1-2.3-2-3.7-2.6c-1.5-0.6-3.1-1-5-1c-1.8,0-3.5,0.3-5,1c-1.5,0.6-2.7,1.5-3.7,2.6c-1,1.1-1.8,2.4-2.4,4
		c-0.6,1.6-0.8,3.2-0.8,5.1s0.3,3.5,0.8,5.1c0.6,1.6,1.3,2.9,2.4,4c1,1.1,2.3,2,3.7,2.6C339,59.9,340.7,60.3,342.5,60.3z"/>
	<path class="st0" d="M371.9,34c1.9-1.8,4.2-3.1,6.7-4c2.5-0.9,5.1-1.3,7.6-1.3c2.7,0,4.9,0.3,6.8,1c1.9,0.7,3.5,1.6,4.7,2.7
		c1.2,1.1,2.1,2.4,2.7,3.9c0.6,1.5,0.9,3,0.9,4.6v18.5c0,1.3,0,2.4,0.1,3.5c0,1.1,0.1,2.1,0.2,3.1h-6.1c-0.2-1.8-0.2-3.7-0.2-5.5
		h-0.2c-1.5,2.3-3.3,4-5.4,5c-2.1,1-4.5,1.5-7.3,1.5c-1.7,0-3.3-0.2-4.8-0.7s-2.9-1.1-4-2.1c-1.1-0.9-2.1-2.1-2.7-3.4
		c-0.7-1.4-1-2.9-1-4.7c0-2.3,0.5-4.3,1.6-5.9c1-1.6,2.5-2.9,4.3-3.9s3.9-1.7,6.3-2.1c2.4-0.4,5-0.6,7.8-0.6h5v-1.5
		c0-0.9-0.2-1.8-0.5-2.8c-0.4-0.9-0.9-1.7-1.6-2.5c-0.7-0.7-1.6-1.3-2.7-1.8c-1.1-0.4-2.3-0.6-3.8-0.6c-1.3,0-2.5,0.1-3.5,0.4
		c-1,0.3-1.9,0.6-2.7,1c-0.8,0.4-1.6,0.8-2.2,1.3c-0.7,0.5-1.3,1-1.9,1.5L371.9,34z M391.3,48.3c-1.6,0-3.3,0.1-5,0.3
		c-1.7,0.2-3.3,0.5-4.7,1c-1.4,0.5-2.5,1.2-3.4,2.1c-0.9,0.9-1.3,2.1-1.3,3.5c0,2.1,0.7,3.6,2.1,4.5c1.4,0.9,3.3,1.4,5.7,1.4
		c1.9,0,3.5-0.3,4.8-1c1.3-0.6,2.4-1.5,3.2-2.5c0.8-1,1.4-2.2,1.8-3.4c0.4-1.2,0.5-2.5,0.5-3.7v-2.3H391.3z"/>
	<path class="st0" d="M411.4,29.5h6.9v5.6h0.2c0.5-1,1.1-1.8,1.8-2.6c0.8-0.8,1.6-1.5,2.6-2c0.9-0.6,2-1,3.1-1.3
		c1.1-0.3,2.2-0.5,3.4-0.5c1.1,0,2.1,0.2,3.1,0.5l-0.3,7.4c-0.6-0.2-1.1-0.3-1.7-0.4c-0.6-0.1-1.1-0.2-1.7-0.2
		c-3.4,0-5.9,0.9-7.7,2.8c-1.8,1.9-2.7,4.8-2.7,8.8v18.2h-6.9V29.5z"/>
	<path class="st0" d="M474.7,65.8h-6.9v-5.2h-0.2c-1.3,1.9-3.1,3.4-5.5,4.5c-2.3,1.1-4.7,1.6-7.2,1.6c-2.8,0-5.3-0.5-7.6-1.5
		s-4.2-2.3-5.8-4.1c-1.6-1.7-2.8-3.7-3.7-6c-0.9-2.3-1.3-4.8-1.3-7.5c0-2.7,0.4-5.2,1.3-7.5c0.9-2.3,2.1-4.3,3.7-6
		c1.6-1.7,3.5-3,5.8-4c2.3-1,4.8-1.5,7.6-1.5c2.6,0,5,0.5,7.3,1.6c2.3,1.1,4.1,2.6,5.3,4.5h0.2V8h6.9V65.8z M455.9,60.3
		c1.8,0,3.5-0.3,5-1c1.5-0.6,2.7-1.5,3.7-2.6c1-1.1,1.8-2.4,2.4-4c0.6-1.6,0.8-3.2,0.8-5.1s-0.3-3.5-0.8-5.1c-0.6-1.6-1.4-2.9-2.4-4
		c-1-1.1-2.3-2-3.7-2.6c-1.5-0.6-3.1-1-5-1c-1.8,0-3.5,0.3-5,1c-1.5,0.6-2.7,1.5-3.7,2.6c-1,1.1-1.8,2.4-2.4,4
		c-0.6,1.6-0.8,3.2-0.8,5.1s0.3,3.5,0.8,5.1c0.6,1.6,1.3,2.9,2.4,4c1,1.1,2.3,2,3.7,2.6C452.4,59.9,454,60.3,455.9,60.3z"/>
</g>
<g>
	<path class="st1" d="M64.2,95.7L45.5,77.1L43.5,75l2.1-2.1l23.5-23.5l2.1-2.1l27.7-27.7l-6.9-6.9c-1.4-1.4-3-2.7-4.6-3.8
		c-0.8-0.5-1.7-1-2.5-1.5c-4.3-2.2-8.9-3.4-13.6-3.4s-9.4,1.1-13.6,3.4c-0.9,0.4-1.7,0.9-2.5,1.5c-1.6,1.1-3.2,2.3-4.6,3.8l-6.9,6.9
		l-2.1,2.1L11,52.1l-2.1,2.1c-0.7,0.7-1.4,1.4-2,2.2v0c-0.5,0.6-0.9,1.2-1.4,1.8c-0.1,0.2-0.3,0.4-0.4,0.6c-0.2,0.3-0.4,0.6-0.6,0.9
		c-0.1,0.1-0.1,0.2-0.2,0.3c-0.3,0.4-0.5,0.8-0.7,1.2c-0.3,0.5-0.6,1.1-0.8,1.6c-0.1,0.3-0.3,0.6-0.4,1c-0.1,0.3-0.2,0.6-0.3,0.9
		C2,65,1.9,65.2,1.9,65.4c0,0.1-0.1,0.2-0.1,0.3c0,0.1-0.1,0.1-0.1,0.1c-0.1,0.3-0.2,0.5-0.3,0.8c-0.1,0.5-0.3,0.9-0.4,1.4
		c-0.1,0.7-0.3,1.4-0.4,2v0.1c-0.1,0.5-0.2,1-0.2,1.5c0,0.2-0.1,0.4-0.1,0.6c-0.1,0.3-0.1,0.6-0.1,1v0.1c0,0.3,0,0.6,0,0.9
		c0,0.3,0,0.6,0,0.9c0,0.3,0,0.6,0,0.9c0,0.3,0,0.6,0,0.9v0.1c0,0.3,0,0.6,0.1,1c0,0.2,0,0.4,0.1,0.6c0,0.5,0.1,1,0.2,1.5V80
		c0.1,0.6,0.3,1.3,0.4,2c0.1,0.4,0.2,0.9,0.4,1.4c0.1,0.4,0.3,0.9,0.4,1.4c0.1,0.4,0.3,0.9,0.5,1.3c0.1,0.3,0.3,0.6,0.4,1
		c0.3,0.6,0.5,1.1,0.8,1.6c0.2,0.4,0.4,0.9,0.7,1.3c0.2,0.4,0.5,0.8,0.8,1.2c0.2,0.3,0.4,0.6,0.6,0.9c0,0,0,0,0.1,0.1
		c0.3,0.5,0.7,1,1.1,1.5c0.6,0.7,1.3,1.5,2,2.2l27.6,27.6L64.2,95.7z"/>
	<path class="st2" d="M15.8,47.3L11,52.1l-2.1,2.1c-0.7,0.7-1.4,1.4-2,2.2v0c-0.5,0.6-0.9,1.2-1.4,1.8c-0.1,0.2-0.3,0.4-0.4,0.6
		c-0.2,0.3-0.4,0.6-0.6,0.9c-0.1,0.1-0.1,0.2-0.2,0.3c-0.3,0.4-0.5,0.8-0.7,1.2c-0.3,0.5-0.6,1.1-0.8,1.6c-0.1,0.3-0.3,0.6-0.4,1
		c-0.1,0.3-0.2,0.6-0.3,0.9C2,65,1.9,65.2,1.9,65.4c0,0.1-0.1,0.2-0.1,0.3c0,0.1-0.1,0.1-0.1,0.1c-0.1,0.3-0.2,0.5-0.3,0.8
		c-0.1,0.5-0.3,0.9-0.4,1.4c-0.1,0.7-0.3,1.4-0.4,2v0.1c-0.1,0.5-0.2,1-0.2,1.5c0,0.2-0.1,0.4-0.1,0.6c-0.1,0.3-0.1,0.6-0.1,1v0.1
		c0,0.3,0,0.6,0,0.9c0,0.3,0,0.6,0,0.9c0,0.3,0,0.6,0,0.9c0,0.3,0,0.6,0,0.9v0.1c0,0.3,0,0.6,0.1,1c0,0.2,0,0.4,0.1,0.6
		c0,0.5,0.1,1,0.2,1.5V80c0.1,0.6,0.3,1.3,0.4,2c0.1,0.4,0.2,0.9,0.4,1.4c0.1,0.4,0.3,0.9,0.4,1.4c0.1,0.4,0.3,0.9,0.5,1.3
		c0.1,0.3,0.3,0.6,0.4,1c0.3,0.6,0.5,1.1,0.8,1.6c0.2,0.4,0.4,0.9,0.7,1.3c0.2,0.4,0.5,0.8,0.8,1.2c0.2,0.3,0.4,0.6,0.6,0.9
		c0,0,0,0,0.1,0.1c0.3,0.5,0.7,1,1.1,1.5c0.6,0.7,1.3,1.5,2,2.2l27.6,27.6l27.7-27.7L45.5,77.1L43.5,75L15.8,47.3z"/>
	<polygon class="st3" points="15.9,47.3 57.9,60.5 43.5,74.9 	"/>
</g>
<g>
	<path class="st4" d="M142,73.3v-0.1c0-0.3,0-0.6-0.1-1c0-0.2,0-0.4-0.1-0.6c0-0.5-0.1-1-0.2-1.5V70c-0.1-0.6-0.3-1.3-0.4-2
		c-0.1-0.4-0.2-0.9-0.4-1.4c-0.1-0.4-0.2-0.8-0.4-1.2c-0.3-0.8-0.6-1.7-1-2.5c-0.2-0.6-0.5-1.1-0.8-1.6c-0.2-0.4-0.4-0.8-0.7-1.2
		c-0.1-0.1-0.1-0.2-0.2-0.3c-0.2-0.3-0.4-0.6-0.6-0.9c-0.1-0.2-0.2-0.4-0.4-0.6c-0.4-0.6-0.9-1.2-1.4-1.8c0,0,0,0,0,0
		c-0.6-0.7-1.3-1.5-2-2.2l-2.1-2.1l-25.6-25.6L78.1,54.2l18.7,18.7l2.1,2.1l-2.1,2.1l-23.5,23.5l-2.1,2.1l-27.7,27.7l6.9,6.9
		c1.4,1.4,3,2.7,4.6,3.8c0.8,0.6,1.7,1,2.5,1.5c0.5,0.3,1.1,0.5,1.6,0.8c1.1,0.5,2.2,0.9,3.3,1.2c0.6,0.2,1.1,0.4,1.7,0.5
		c0.6,0.1,1.2,0.2,1.7,0.4c0.5,0.1,1,0.1,1.4,0.2c0.1,0,0.2,0,0.4,0.1c0.6,0.1,1.1,0.1,1.7,0.1c0.6,0,1.2,0.1,1.8,0.1s1.2,0,1.8-0.1
		c0.6,0,1.1-0.1,1.7-0.1c0.1,0,0.2,0,0.4-0.1c0.5-0.1,1-0.1,1.4-0.2c0.6-0.1,1.2-0.2,1.7-0.4c0.6-0.1,1.1-0.3,1.7-0.5
		c1.2-0.3,2.2-0.8,3.3-1.2c0.6-0.3,1.1-0.5,1.6-0.8c0.9-0.4,1.7-0.9,2.5-1.5c1.6-1.1,3.2-2.3,4.6-3.8l6.9-6.9l2.1-2.1l32.5-32.5
		c0.7-0.7,1.4-1.4,2-2.2c0.4-0.5,0.8-1,1.1-1.5c0,0,0,0,0.1-0.1c0.2-0.3,0.4-0.6,0.6-0.9c0.3-0.4,0.5-0.8,0.8-1.2
		c0.3-0.4,0.5-0.8,0.7-1.3c0.3-0.5,0.5-1.1,0.8-1.6c0.4-0.7,0.6-1.5,0.9-2.3c0.2-0.4,0.3-0.9,0.4-1.4c0.1-0.4,0.3-0.9,0.4-1.4
		c0.1-0.7,0.3-1.4,0.4-2v-0.1c0.1-0.5,0.2-1,0.2-1.5c0-0.2,0.1-0.4,0.1-0.6c0.1-0.3,0.1-0.6,0.1-1v-0.1c0-0.6,0.1-1.1,0.1-1.7
		C142,74.4,142,73.9,142,73.3z"/>
	<path class="st5" d="M126.5,102.6l4.8-4.8l2.1-2.1c0.7-0.7,1.4-1.4,2-2.2v0c0.5-0.6,0.9-1.2,1.4-1.8c0.1-0.2,0.3-0.4,0.4-0.6
		c0.2-0.3,0.4-0.6,0.6-0.9c0.1-0.1,0.1-0.2,0.2-0.3c0.3-0.4,0.5-0.8,0.7-1.2c0.3-0.5,0.6-1.1,0.8-1.6c0.1-0.3,0.3-0.6,0.4-1
		c0.1-0.3,0.2-0.6,0.3-0.9c0.1-0.2,0.1-0.4,0.2-0.6c0-0.1,0.1-0.2,0.1-0.3c0-0.1,0.1-0.1,0.1-0.1c0.1-0.3,0.2-0.5,0.3-0.8
		c0.1-0.5,0.3-0.9,0.4-1.4c0.1-0.7,0.3-1.4,0.4-2v-0.1c0.1-0.5,0.2-1,0.2-1.5c0-0.2,0.1-0.4,0.1-0.6c0.1-0.3,0.1-0.6,0.1-1v-0.1
		c0-0.3,0-0.6,0-0.9c0-0.3,0-0.6,0-0.9c0-0.3,0-0.6,0-0.9c0-0.3,0-0.6,0-0.9v-0.1c0-0.3,0-0.6-0.1-1c0-0.2,0-0.4-0.1-0.6
		c0-0.5-0.1-1-0.2-1.5V70c-0.1-0.6-0.3-1.3-0.4-2c-0.1-0.4-0.2-0.9-0.4-1.4c-0.1-0.4-0.3-0.9-0.4-1.4c-0.1-0.4-0.3-0.9-0.5-1.3
		c-0.1-0.3-0.3-0.6-0.4-1c-0.3-0.6-0.5-1.1-0.8-1.6c-0.2-0.4-0.4-0.9-0.7-1.3c-0.2-0.4-0.5-0.8-0.8-1.2c-0.2-0.3-0.4-0.6-0.6-0.9
		c0,0,0,0-0.1-0.1c-0.3-0.5-0.7-1-1.1-1.5c-0.6-0.7-1.3-1.5-2-2.2l-27.6-27.6L78.1,54.2l18.6,18.6l2.1,2.1L126.5,102.6z"/>
	<polygon class="st6" points="126.4,102.5 85.1,88.8 98.9,75 	"/>
</g>
<g>
	<path class="st0" d="M173.8,85.2h7.3v47.3H206v6.9h-32.2V85.2z"/>
	<path class="st0" d="M210.6,90c0-1.4,0.5-2.6,1.5-3.6s2.2-1.5,3.6-1.5s2.6,0.5,3.6,1.5s1.5,2.2,1.5,3.6c0,1.4-0.5,2.6-1.5,3.6
		s-2.2,1.5-3.6,1.5s-2.6-0.5-3.6-1.5S210.6,91.4,210.6,90z M212.2,103h6.9v36.2h-6.9V103z"/>
	<path class="st0" d="M230,81.5h6.9v26.8h0.2c1.2-1.9,3-3.4,5.3-4.5c2.3-1.1,4.7-1.6,7.3-1.6c2.8,0,5.3,0.5,7.6,1.5
		c2.3,1,4.2,2.3,5.8,4c1.6,1.7,2.8,3.7,3.7,6c0.9,2.3,1.3,4.8,1.3,7.5c0,2.7-0.4,5.2-1.3,7.5c-0.9,2.3-2.1,4.3-3.7,6
		c-1.6,1.7-3.5,3.1-5.8,4.1s-4.8,1.5-7.6,1.5c-2.4,0-4.8-0.5-7.2-1.6c-2.3-1.1-4.1-2.6-5.5-4.5h-0.2v5.2H230V81.5z M248.9,133.8
		c1.8,0,3.5-0.3,5-1c1.5-0.6,2.7-1.5,3.7-2.6c1-1.1,1.8-2.4,2.4-4c0.6-1.6,0.8-3.3,0.8-5.1s-0.3-3.5-0.8-5.1c-0.6-1.6-1.4-2.9-2.4-4
		c-1-1.1-2.3-2-3.7-2.6c-1.5-0.6-3.1-1-5-1c-1.8,0-3.5,0.3-5,1c-1.5,0.6-2.7,1.5-3.7,2.6c-1,1.1-1.8,2.4-2.4,4
		c-0.6,1.6-0.8,3.2-0.8,5.1s0.3,3.5,0.8,5.1c0.6,1.6,1.4,2.9,2.4,4c1,1.1,2.3,2,3.7,2.6C245.4,133.5,247,133.8,248.9,133.8z"/>
	<path class="st0" d="M276.8,103h6.9v5.6h0.2c0.5-1,1.1-1.8,1.8-2.6c0.8-0.8,1.6-1.5,2.6-2c0.9-0.6,2-1,3.1-1.3
		c1.1-0.3,2.2-0.5,3.4-0.5c1.1,0,2.1,0.2,3.1,0.5l-0.3,7.4c-0.6-0.2-1.1-0.3-1.7-0.4c-0.6-0.1-1.1-0.2-1.7-0.2
		c-3.4,0-5.9,0.9-7.7,2.8c-1.8,1.9-2.7,4.8-2.7,8.8v18.2h-6.9V103z"/>
	<path class="st0" d="M305.2,107.5c1.9-1.8,4.2-3.1,6.7-4c2.5-0.9,5.1-1.3,7.6-1.3c2.7,0,4.9,0.3,6.8,1c1.9,0.7,3.5,1.6,4.7,2.7
		c1.2,1.1,2.1,2.4,2.7,3.9c0.6,1.5,0.9,3,0.9,4.5v18.5c0,1.3,0,2.4,0.1,3.5c0.1,1.1,0.1,2.1,0.2,3.1h-6.1c-0.2-1.8-0.2-3.7-0.2-5.5
		h-0.2c-1.5,2.3-3.3,4-5.4,5c-2.1,1-4.5,1.5-7.3,1.5c-1.7,0-3.3-0.2-4.8-0.7s-2.9-1.1-4-2.1c-1.1-0.9-2.1-2.1-2.7-3.4
		c-0.7-1.4-1-2.9-1-4.7c0-2.3,0.5-4.3,1.6-5.9c1-1.6,2.5-2.9,4.3-3.9c1.8-1,3.9-1.7,6.3-2.1c2.4-0.4,5-0.6,7.8-0.6h5v-1.5
		c0-0.9-0.2-1.8-0.5-2.8c-0.4-0.9-0.9-1.7-1.6-2.5c-0.7-0.7-1.6-1.3-2.7-1.8c-1.1-0.4-2.3-0.6-3.8-0.6c-1.3,0-2.5,0.1-3.5,0.4
		c-1,0.3-1.9,0.6-2.7,1c-0.8,0.4-1.6,0.8-2.2,1.3c-0.7,0.5-1.3,1-1.9,1.5L305.2,107.5z M324.6,121.9c-1.6,0-3.3,0.1-5,0.3
		c-1.7,0.2-3.3,0.5-4.7,1c-1.4,0.5-2.6,1.2-3.4,2.1c-0.9,0.9-1.3,2.1-1.3,3.5c0,2.1,0.7,3.6,2.1,4.5s3.3,1.4,5.7,1.4
		c1.9,0,3.5-0.3,4.8-1c1.3-0.6,2.4-1.5,3.2-2.5c0.8-1,1.4-2.2,1.8-3.4c0.4-1.2,0.5-2.5,0.5-3.7v-2.3H324.6z"/>
	<path class="st0" d="M344.8,103h6.9v5.6h0.2c0.5-1,1.1-1.8,1.8-2.6c0.8-0.8,1.6-1.5,2.6-2c0.9-0.6,2-1,3.1-1.3
		c1.1-0.3,2.2-0.5,3.4-0.5c1.1,0,2.1,0.2,3.1,0.5l-0.3,7.4c-0.6-0.2-1.1-0.3-1.7-0.4c-0.6-0.1-1.1-0.2-1.7-0.2
		c-3.4,0-5.9,0.9-7.7,2.8c-1.8,1.9-2.7,4.8-2.7,8.8v18.2h-6.9V103z"/>
	<path class="st0" d="M368.8,103h8l10.7,28.3h0.2l10.3-28.3h7.3l-17.2,44c-0.6,1.6-1.2,3-1.9,4.3c-0.7,1.3-1.4,2.4-2.4,3.3
		c-0.9,0.9-2,1.6-3.3,2.1c-1.3,0.5-2.9,0.8-4.8,0.8c-1,0-2-0.1-3.1-0.2c-1-0.1-2-0.4-3-0.8l0.8-6.3c1.4,0.6,2.7,0.8,4.1,0.8
		c1.1,0,2-0.1,2.7-0.4c0.7-0.3,1.4-0.7,1.9-1.2c0.5-0.5,1-1.2,1.3-1.9c0.4-0.7,0.7-1.5,1.1-2.4l2.2-5.7L368.8,103z"/>
</g>
</svg>
